<svg width="265" height="34" viewBox="0 0 265 34" fill="none" xmlns="http://www.w3.org/2000/svg">
<g clip-path="url(#clip0_5_581)">
<path d="M240.635 12.6106H240.691C242.194 10.6089 243.947 10.2658 245.895 10.2658L245.533 15.3844C245.115 15.3558 244.698 15.3558 244.308 15.3558C240.44 15.3558 240.301 17.6434 240.162 20.3028L239.8 26.2792H233.762L234.569 14.3835C234.68 12.9537 234.708 11.9815 234.652 10.2372H240.413L240.635 12.6106Z" fill="#B0B0B0"/>
<path d="M209.997 26.2793L211.555 3.28857H217.26L215.702 26.2793H209.997Z" fill="#B0B0B0"/>
<path d="M200.758 2.68811C205.378 2.68811 210.081 4.74698 209.886 10.5232H203.541C203.541 9.00769 202.678 7.29197 200.536 7.29197C198.393 7.29197 195.861 8.9505 195.415 13.6973C194.97 18.4442 195.555 22.0758 199.311 22.0758C202.567 22.0758 203.207 19.1876 203.263 18.6443H209.552C209.552 21.2179 207.493 26.5081 198.95 26.5081C189.933 26.5081 188.347 19.7596 189.071 13.4972C189.711 8.23562 193.356 2.68811 200.758 2.68811Z" fill="#B0B0B0"/>
<path d="M181.112 13.4685H188.653L186.232 18.4727H178.691L181.112 13.4685Z" fill="#B0B0B0"/>
<path d="M169.397 33.9999H163.97L167.477 26.5366L161.744 10.2372H168.395L170.955 20.1884L175.046 10.2372H180.528L169.397 33.9999Z" fill="#B0B0B0"/>
<path d="M85.0236 10.2372V12.4104H85.0792C86.8046 10.0656 89.1977 9.86545 90.6726 9.86545C92.7875 9.86545 94.9859 11.0665 95.4033 12.6964C96.5999 10.7805 98.7426 9.83685 101.108 9.77966C104.503 9.77966 106.868 12.0101 106.646 15.5559L105.894 26.2792H99.9392L100.579 16.8713C100.663 15.3558 100.551 13.6114 98.5756 13.6114C95.7094 13.6114 95.8207 16.8999 95.7929 17.1001L95.2085 26.2792H89.1977L89.8656 16.8713C89.8934 15.2986 89.6986 13.6114 87.8064 13.6114C84.7732 13.6114 84.8566 16.8999 84.8566 17.1001L84.2444 26.3078H78.0667L79.152 10.2658L85.0236 10.2372Z" fill="#B0B0B0"/>
<path d="M72.4177 10.2372H77.9832L76.8979 26.2792H71.3324L72.4177 10.2372Z" fill="#B0B0B0"/>
<path d="M63.5964 3.28857L55.7768 13.4971L62.7337 26.2793H70.5811L62.7615 13.154L70.9985 3.28857H63.5964Z" fill="#B0B0B0"/>
<path d="M49.7939 3.28857H56.3334L54.775 26.2793H48.2077L49.7939 3.28857Z" fill="#B0B0B0"/>
<path d="M131.579 19.302C131.412 21.5039 131.885 23.3054 134.111 23.3054C135.753 23.3054 136.783 22.1901 136.783 21.1321H142.237C142.126 23.0766 140.79 24.5922 139.232 25.4786C137.812 26.3651 136.171 26.5366 134.418 26.5366C128.073 26.5366 125.596 23.8201 125.986 17.7579C126.32 12.6965 130.271 9.69396 134.974 9.77974C141.235 9.89413 143.239 13.6687 142.654 19.3306H131.579V19.302ZM137.228 16.2709C137.284 15.413 137.089 14.5552 136.672 13.8689C136.254 13.2112 135.614 12.7823 134.724 12.8395C132.664 12.9252 132.136 14.4408 131.857 16.2423H137.228V16.2709Z" fill="#B0B0B0"/>
<path d="M108.649 3.28857H114.493L113.881 12.4391H113.992C115.161 11.0093 116.803 9.80832 118.918 9.80832C123.704 9.80832 125.54 14.1262 125.262 18.0152C125.012 21.9614 122.98 26.4794 117.665 26.4794C115.857 26.4794 114.131 25.45 113.324 24.2776H113.213L112.851 26.2221H107.119L108.649 3.28857ZM113.324 18.4727C113.241 20.4172 113.714 23.191 115.857 23.191C118.556 23.191 119.224 20.4172 119.335 18.1868C119.418 16.2137 119.057 13.297 116.747 13.3256C113.797 13.3256 113.408 16.3567 113.324 18.4727Z" fill="#B0B0B0"/>
<path d="M154.565 26.2793L156.123 3.28857H161.828L160.269 26.2793H154.565Z" fill="#B0B0B0"/>
<path d="M149.75 12.6106H149.806C151.309 10.6089 153.062 10.2658 154.982 10.2658L154.62 15.3844C154.231 15.3558 153.813 15.3558 153.424 15.3558C149.556 15.3558 149.417 17.6434 149.277 20.3028L148.916 26.2792H142.877L143.684 14.3835C143.795 12.9537 143.823 11.9815 143.768 10.2372H149.528L149.75 12.6106Z" fill="#B0B0B0"/>
<path d="M252.156 17.3574L257.721 10.2372H264.4L258.389 17.0143L264.066 26.2792H256.831L252.156 17.3574Z" fill="#B0B0B0"/>
<path d="M245.672 26.2793L247.23 3.28857H253.13L251.571 26.2793H245.672Z" fill="#B0B0B0"/>
<path d="M226.916 24.3062H226.861C225.608 25.5072 224.412 26.3936 222.13 26.3936C218.429 26.3936 216.898 24.249 216.898 21.418C216.898 18.244 220.071 16.1851 225.72 16.1851H227.584C227.668 14.7839 228.141 12.4677 225.831 12.4677C224.161 12.4677 223.772 14.0976 223.744 14.8697H218.373C218.485 12.7822 219.375 11.3811 221.017 10.6662C222.686 9.89411 224.718 9.72253 226.443 9.72253C229.616 9.72253 233.484 11.3525 233.233 15.2986L232.788 22.9908C232.732 23.6485 232.732 24.3634 232.816 26.2793H227.25L226.916 24.3062ZM224.356 23.2196C227.111 23.2196 227.278 20.5888 227.417 18.4441C226.165 18.4441 224.996 18.3869 224.161 18.7873C223.271 19.2448 222.603 19.9883 222.52 21.1035C222.464 22.3045 223.243 23.2196 224.356 23.2196Z" fill="#B0B0B0"/>
<path d="M72.9743 3.28857H78.5398L78.2615 7.4349H72.696L72.9743 3.28857Z" fill="#B0B0B0"/>
<path d="M14.8147 3.43153V13.2112C14.0633 11.4382 12.3937 9.86549 10.6962 8.80746H3.54451C5.85419 10.5804 9.52743 13.3541 9.52743 15.5846C9.52743 16.6998 8.21954 16.9 7.46819 16.9H2.96013V22.2187H10.0283C11.6145 22.2187 13.8964 21.6182 14.8147 19.1304V26.2506H21.382V19.1304C22.3003 21.6468 24.5821 22.2187 26.1683 22.2187H33.2365V16.9H28.7284C27.9771 16.9 26.6692 16.6712 26.6692 15.5846C26.6692 13.3541 30.3424 10.5804 32.6521 8.80746H25.5004C23.803 9.86549 22.1333 11.4382 21.382 13.2112V3.43153H14.8147ZM18.0983 8.72262e-05C27.8658 8.72262e-05 35.7966 7.00596 35.7966 15.6418C35.7966 24.2776 27.8658 31.2834 18.0983 31.2834C8.33085 31.2834 0.399994 24.2776 0.399994 15.6418C0.399994 6.97736 8.30302 -0.0285082 18.0983 8.72262e-05Z" fill="#B0B0B0"/>
</g>
<defs>
<clipPath id="clip0_5_581">
<rect width="264" height="34" fill="white" transform="translate(0.399994)"/>
</clipPath>
</defs>
</svg>
