<svg width="42" height="43" viewBox="0 0 42 43" fill="none" xmlns="http://www.w3.org/2000/svg">
<rect x="0.5" y="1" width="41" height="41" rx="20.5" stroke="#84754E"/>
<path d="M25.4445 31.4999V29.2777C25.4445 28.099 24.9762 26.9685 24.1427 26.135C23.3092 25.3015 22.1788 24.8333 21 24.8333H14.3334C13.1546 24.8333 12.0242 25.3015 11.1907 26.135C10.3572 26.9685 9.88892 28.099 9.88892 29.2777V31.4999" stroke="#84754E" stroke-width="2" stroke-linecap="round" stroke-linejoin="round"/>
<path d="M17.6667 20.3889C20.1213 20.3889 22.1111 18.399 22.1111 15.9444C22.1111 13.4898 20.1213 11.5 17.6667 11.5C15.2121 11.5 13.2222 13.4898 13.2222 15.9444C13.2222 18.399 15.2121 20.3889 17.6667 20.3889Z" stroke="#84754E" stroke-width="2" stroke-linecap="round" stroke-linejoin="round"/>
<path d="M25.4445 20.389L27.6667 22.6112L32.1111 18.1667" stroke="#84754E" stroke-width="2" stroke-linecap="round" stroke-linejoin="round"/>
</svg>
