<svg width="42" height="42" viewBox="0 0 42 42" fill="none" xmlns="http://www.w3.org/2000/svg">
<rect x="0.5" y="0.5" width="41" height="41" rx="20.5" stroke="#84754E"/>
<path d="M12.1111 14.3333L9.88892 15.4444" stroke="#84754E" stroke-width="2" stroke-linecap="round" stroke-linejoin="round"/>
<path d="M18.7778 14.3333H23.2223" stroke="#84754E" stroke-width="2" stroke-linecap="round" stroke-linejoin="round"/>
<path d="M32.1111 15.4444L29.8889 14.3333" stroke="#84754E" stroke-width="2" stroke-linecap="round" stroke-linejoin="round"/>
<path d="M27.6667 11H14.3334C13.1061 11 12.1111 11.9949 12.1111 13.2222V26.5556C12.1111 27.7829 13.1061 28.7778 14.3334 28.7778H27.6667C28.894 28.7778 29.8889 27.7829 29.8889 26.5556V13.2222C29.8889 11.9949 28.894 11 27.6667 11Z" stroke="#84754E" stroke-width="2" stroke-linecap="round" stroke-linejoin="round"/>
<path d="M12.1111 19.8889H29.8889" stroke="#84754E" stroke-width="2" stroke-linecap="round" stroke-linejoin="round"/>
<path d="M16.5556 24.3333H16.5667" stroke="#84754E" stroke-width="2" stroke-linecap="round" stroke-linejoin="round"/>
<path d="M25.4445 24.3333H25.4556" stroke="#84754E" stroke-width="2" stroke-linecap="round" stroke-linejoin="round"/>
<path d="M14.3334 28.7778V31.0001" stroke="#84754E" stroke-width="2" stroke-linecap="round" stroke-linejoin="round"/>
<path d="M27.6667 31.0001V28.7778" stroke="#84754E" stroke-width="2" stroke-linecap="round" stroke-linejoin="round"/>
</svg>
