<svg width="42" height="42" viewBox="0 0 42 42" fill="none" xmlns="http://www.w3.org/2000/svg">
<rect x="0.5" y="0.5" width="41" height="41" rx="20.5" stroke="#84754E"/>
<path d="M23.4029 13.6436C23.7196 13.8018 24.0688 13.8842 24.4229 13.8842C24.777 13.8842 25.1262 13.8018 25.4429 13.6436L29.6178 11.5556C29.7918 11.4686 29.9853 11.4276 30.1797 11.4364C30.3741 11.4453 30.563 11.5037 30.7285 11.6062C30.8939 11.7086 31.0304 11.8517 31.125 12.0218C31.2196 12.1918 31.269 12.3833 31.2688 12.5779V27.1413C31.2686 27.3531 31.2096 27.5608 31.0981 27.7409C30.9867 27.9211 30.8273 28.0666 30.6378 28.1613L25.4429 30.7593C25.1262 30.9176 24.777 31 24.4229 31C24.0688 31 23.7196 30.9176 23.4029 30.7593L18.5971 28.3564C18.2804 28.1982 17.9311 28.1158 17.5771 28.1158C17.223 28.1158 16.8738 28.1982 16.557 28.3564L12.3822 30.4444C12.208 30.5315 12.0145 30.5725 11.82 30.5636C11.6255 30.5547 11.4365 30.4961 11.271 30.3935C11.1055 30.291 10.9691 30.1477 10.8746 29.9775C10.7801 29.8073 10.7307 29.6157 10.7312 29.421V14.8587C10.7313 14.6469 10.7904 14.4392 10.9018 14.2591C11.0133 14.0789 11.1727 13.9334 11.3622 13.8387L16.557 11.2407C16.8738 11.0824 17.223 11 17.5771 11C17.9311 11 18.2804 11.0824 18.5971 11.2407L23.4029 13.6436Z" stroke="#84754E" stroke-width="2" stroke-linecap="round" stroke-linejoin="round"/>
<path d="M24.4229 13.8842V30.9988" stroke="#84754E" stroke-width="2" stroke-linecap="round" stroke-linejoin="round"/>
<path d="M17.577 11V28.1146" stroke="#84754E" stroke-width="2" stroke-linecap="round" stroke-linejoin="round"/>
</svg>
