<svg width="233" height="36" viewBox="0 0 233 36" fill="none" xmlns="http://www.w3.org/2000/svg">
<g clip-path="url(#clip0_44_2)">
<path d="M169.394 2.58302V4.47411C169.115 4.48899 168.862 4.51484 168.609 4.51484C162.913 4.51484 157.217 4.51484 151.52 4.51484C151.254 4.51484 150.987 4.50388 150.721 4.52503C149.912 4.58927 149.31 5.17289 149.262 5.92102C149.229 6.3152 149.349 6.7069 149.598 7.01853C149.846 7.33017 150.205 7.53902 150.603 7.60372C150.868 7.63235 151.135 7.64047 151.402 7.62801C156.06 7.62801 160.719 7.62801 165.377 7.62801C167.004 7.62801 168.273 8.30172 169.047 9.71181C170.174 11.7666 168.685 14.3988 166.26 14.6965C165.942 14.7314 165.621 14.7465 165.301 14.7419C159.552 14.7456 153.802 14.7474 148.052 14.7474H147.21V12.8453C147.52 12.832 147.803 12.8085 148.089 12.8085C153.759 12.8054 159.429 12.8041 165.098 12.8046C165.365 12.8134 165.631 12.8084 165.897 12.7897C166.299 12.7526 166.671 12.5681 166.94 12.2732C167.209 11.9783 167.354 11.5947 167.346 11.1995C167.334 10.355 166.736 9.73609 165.851 9.66794C165.586 9.64757 165.319 9.65775 165.052 9.65775C160.499 9.65775 155.948 9.65775 151.397 9.65775C150.666 9.65775 149.964 9.54886 149.306 9.23316C147.846 8.53282 147.008 7.04596 147.241 5.59043C147.481 4.09417 148.76 2.84859 150.328 2.60496C150.645 2.56034 150.966 2.54017 151.287 2.54463C157.063 2.54098 162.839 2.54098 168.615 2.54463C168.843 2.5415 169.076 2.56579 169.394 2.58302Z" fill="#FFFFFF"/>
<path d="M87.4287 2.5415H94.9357C96.0955 2.5415 97.0659 2.95747 97.8132 3.83173C98.3296 4.43572 98.5582 5.15408 98.563 5.93198C98.5733 7.75805 98.5925 9.5849 98.5582 11.4102C98.5206 13.4227 97.0003 14.8484 94.8918 14.8571C90.3126 14.8727 85.7326 14.8633 81.1527 14.8649C80.7266 14.8649 80.3006 14.8704 79.8738 14.8649C77.7245 14.8202 76.2769 13.3929 76.2666 11.295C76.257 9.54756 76.257 7.79983 76.2666 6.05184C76.2769 4.05108 77.6413 2.60495 79.6812 2.56265C82.2629 2.50781 84.8462 2.54933 87.4287 2.54933V2.5415ZM87.4439 4.51406C85.0775 4.51406 82.7102 4.51406 80.3422 4.51406C80.0756 4.50676 79.8088 4.5133 79.5429 4.53364C78.7963 4.61198 78.3255 5.08906 78.3208 5.82231C78.3072 7.70243 78.3431 9.5755 78.3016 11.4509C78.2864 12.1693 78.965 12.8195 79.6324 12.8547C79.7651 12.8618 79.8986 12.8649 80.032 12.8649C84.9264 12.8649 89.8208 12.8649 94.7151 12.8649C95.974 12.8649 96.5024 12.3346 96.5088 11.0898C96.5176 9.47444 96.4776 7.85832 96.5215 6.24377C96.5487 5.252 95.99 4.46314 94.7039 4.49604C92.2869 4.55871 89.865 4.51484 87.4431 4.51406H87.4439Z" fill="#FFFFFF"/>
<path d="M52.298 9.69144V14.7834H50.3797C50.2199 14.2139 50.1783 8.80151 50.3334 7.76901C50.6243 7.75805 50.9328 7.73611 51.2414 7.73533C56.8572 7.73533 62.4728 7.73533 68.0882 7.73533C68.3279 7.73533 68.5677 7.74786 68.8075 7.7275C69.7731 7.64446 70.51 6.89789 70.4741 6.05184C70.4373 5.17837 69.6915 4.53599 68.6836 4.53599C63.5473 4.53599 58.4108 4.53599 53.274 4.53599H50.2686V2.56265H51.1798C56.8484 2.56265 62.517 2.56265 68.1857 2.56265C68.5576 2.55704 68.9295 2.57458 69.2991 2.61514C70.1506 2.72342 70.9371 3.11883 71.5235 3.7335C72.11 4.34817 72.4599 5.14376 72.5131 5.98368C72.6194 7.53792 71.3629 9.11722 69.6939 9.52536C69.439 9.58725 69.1832 9.64522 68.7819 9.74001C69.3095 10.3581 69.7723 10.9057 70.2423 11.4478C70.7122 11.9899 71.1806 12.514 71.6498 13.0467L73.0806 14.6792L72.995 14.8359C72.3428 14.8359 71.6858 14.8782 71.0392 14.814C70.7938 14.7897 70.5332 14.5578 70.3478 14.3596C69.1616 13.0905 67.9667 11.8285 66.8309 10.5148C66.3073 9.90608 65.7574 9.65775 64.9269 9.66794C61.0423 9.71416 57.1562 9.6883 53.2708 9.68752L52.298 9.69144Z" fill="#FFFFFF"/>
<path d="M182.257 5.5536L175.467 12.8391C175.909 12.8634 176.16 12.8892 176.41 12.89C179.527 12.89 182.638 12.9033 185.752 12.8837C186.276 12.8798 186.663 13.0051 186.988 13.4219C187.335 13.8661 187.744 14.2656 188.227 14.7967H170.994C171.134 14.5923 171.22 14.4215 171.346 14.286C174.415 10.9958 177.486 7.70556 180.56 4.41535L182.303 2.5462L193.761 14.8265C192.753 14.8265 191.946 14.8539 191.142 14.8061C190.953 14.7952 190.759 14.5508 190.6 14.3831C188.673 12.3307 186.748 10.2751 184.827 8.21632C184.126 7.46663 183.43 6.71223 182.727 5.96488C182.604 5.83327 182.456 5.72595 182.257 5.5536Z" fill="#FFFFFF"/>
<path d="M111.75 5.51366L104.92 12.8438C105.324 12.8641 105.55 12.8861 105.777 12.8861C108.917 12.8861 112.058 12.9002 115.2 12.879C115.724 12.879 116.112 13.0028 116.442 13.4078C116.803 13.8512 117.211 14.257 117.619 14.702C117.02 14.879 102.101 14.9417 100.539 14.7944C100.524 14.7725 100.502 14.7521 100.498 14.7286C100.493 14.7014 100.499 14.6735 100.514 14.6503C100.594 14.5468 100.668 14.4395 100.754 14.3447C104.393 10.4372 108.034 6.53127 111.755 2.53758L123.07 14.6612L123.001 14.8297C122.22 14.8297 121.437 14.85 120.657 14.814C120.485 14.8054 120.297 14.6181 120.16 14.4732C117.815 11.98 115.476 9.4828 113.142 6.98172C112.714 6.525 112.277 6.06986 111.75 5.51366Z" fill="#FFFFFF"/>
<path d="M126.295 14.7889V2.68251C126.896 2.50076 127.519 2.48823 128.331 2.65196V12.8461H144.368C144.557 13.5285 144.475 14.1348 144.418 14.7889H126.295Z" fill="#FFFFFF"/>
<path d="M210.781 33.3496V31.3951H211.616C217.391 31.3951 223.166 31.3979 228.94 31.4037C229.463 31.4037 229.941 31.3371 230.353 30.9877C230.851 30.5639 230.977 30.021 230.849 29.428C230.8 29.1547 230.668 28.9022 230.47 28.7037C230.273 28.5051 230.018 28.3699 229.74 28.3156C229.351 28.2354 228.953 28.1981 228.554 28.2043C223.976 28.1981 219.399 28.1981 214.822 28.2043C214.148 28.2043 213.489 28.1519 212.885 27.8362C211.532 27.1311 210.727 26.061 210.754 24.5217C210.776 23.1437 211.811 21.8378 213.232 21.3646C213.682 21.2081 214.156 21.1232 214.634 21.1132C220.542 21.0944 226.45 21.0894 232.358 21.0983C232.538 21.0983 232.719 21.1304 232.941 21.1516V23.1045H232.116H215.11C214.844 23.1045 214.576 23.0928 214.311 23.1155C213.506 23.1852 212.926 23.7062 212.842 24.4167C212.749 25.1938 213.161 25.8832 213.936 26.1174C214.283 26.2232 214.669 26.2341 215.037 26.2349C219.747 26.2435 224.458 26.2349 229.168 26.2482C230.607 26.2522 231.731 26.8961 232.488 28.0845C233.893 30.2881 232.237 33.0198 229.685 33.3151C229.392 33.3412 229.099 33.3504 228.805 33.3426C223.057 33.3457 217.308 33.3473 211.56 33.3473L210.781 33.3496Z" fill="#FFFFFF"/>
<path d="M187.315 28.2843V33.3802H185.42C185.224 32.8271 185.18 27.2173 185.383 26.2851H186.292C191.99 26.2851 197.687 26.2851 203.384 26.2851C203.898 26.2851 204.393 26.2694 204.823 25.9357C205.375 25.5072 205.614 24.9024 205.414 24.2718C205.213 23.6411 204.767 23.2596 204.108 23.1484C203.816 23.1136 203.522 23.1029 203.229 23.1163C197.558 23.1163 191.888 23.1163 186.216 23.1163H185.301V21.1813C185.525 21.1469 185.75 21.1241 185.977 21.1132C191.754 21.11 197.531 21.1119 203.309 21.1187C203.734 21.1212 204.159 21.164 204.576 21.2463C206.25 21.5699 207.508 23.0481 207.534 24.687C207.557 26.2702 206.255 27.8009 204.595 28.144C204.368 28.191 204.14 28.2224 203.761 28.2929C205.2 30.0547 206.707 31.6121 208.186 33.4201C207.337 33.4201 206.655 33.4577 205.981 33.399C205.762 33.3794 205.54 33.1311 205.367 32.9446C204.093 31.5768 202.818 30.2098 201.574 28.8162C201.228 28.4245 200.872 28.2678 200.342 28.2733C196.295 28.2944 192.249 28.2858 188.202 28.2858L187.315 28.2843Z" fill="#FFFFFF"/>
<path d="M100.926 26.2835H118.875C119.141 26.2944 119.409 26.2863 119.674 26.2592C120.473 26.1448 121.098 25.4508 121.1 24.7042C121.1 23.9145 120.461 23.2267 119.611 23.1374C119.372 23.1187 119.131 23.1129 118.891 23.1202H100.898V21.186C101.099 21.1489 101.302 21.1244 101.507 21.1124C107.31 21.1124 113.114 21.115 118.918 21.1202C119.397 21.1214 119.875 21.1777 120.341 21.2879C121.99 21.6795 123.164 23.168 123.129 24.7669C123.094 26.3791 121.795 27.8401 120.114 28.1519C119.909 28.1903 119.7 28.2122 119.361 28.26C119.808 28.9282 120.352 29.4194 120.811 29.9717C121.281 30.538 121.786 31.077 122.271 31.6317C122.756 32.1863 123.223 32.7331 123.816 33.4185C122.961 33.4185 122.277 33.4562 121.604 33.3974C121.385 33.3786 121.161 33.1357 120.988 32.9517C119.676 31.5478 118.372 30.1359 117.078 28.7159C116.809 28.4206 116.54 28.2725 116.124 28.2741C111.917 28.2882 107.71 28.2835 103.504 28.2866C103.344 28.2866 103.192 28.3148 102.945 28.3375V33.3778H100.925L100.926 26.2835Z" fill="#FFFFFF"/>
<path d="M145.359 28.2733L149.868 33.424C149.005 33.424 148.35 33.4593 147.697 33.4037C147.474 33.3849 147.235 33.1687 147.065 32.9893C145.751 31.5875 144.447 30.1774 143.154 28.759C143.022 28.5997 142.853 28.4732 142.661 28.3896C142.47 28.3061 142.261 28.2678 142.051 28.278C137.952 28.2921 133.854 28.2843 129.755 28.2858C129.523 28.2858 129.291 28.314 128.963 28.3344V33.3802H126.95V26.3234C127.275 26.3093 127.56 26.2858 127.846 26.2858C133.515 26.2858 139.184 26.2858 144.853 26.2858C145.119 26.2964 145.386 26.2912 145.652 26.2702C146.488 26.1715 147.149 25.457 147.138 24.6877C147.126 23.8981 146.474 23.2189 145.629 23.1343C145.363 23.1159 145.096 23.111 144.829 23.1194H127.008C126.807 22.4567 126.904 21.8464 126.935 21.1813C127.143 21.1485 127.352 21.1266 127.562 21.1155C133.338 21.1124 139.114 21.1147 144.889 21.1226C145.395 21.1211 145.899 21.1787 146.391 21.2941C148.087 21.7054 149.193 23.1633 149.141 24.8624C149.095 26.4018 147.838 27.8119 146.215 28.1417C145.984 28.1856 145.752 28.2122 145.359 28.2733Z" fill="#FFFFFF"/>
<path d="M72.5362 31.4092V33.294C72.3245 33.3278 72.111 33.3508 71.8968 33.3629C66.9188 33.3629 61.9407 33.3582 56.9627 33.3668C55.2698 33.3708 53.7567 32.8835 52.4691 31.8142C49.2831 29.1718 49.5405 24.6118 52.9934 22.2882C54.0914 21.5303 55.4 21.1203 56.7429 21.1132C61.8009 21.0904 66.8588 21.1006 71.9176 21.1022C72.0974 21.1022 72.2773 21.1374 72.5059 21.161V23.0638C72.1925 23.0771 71.8872 23.1014 71.5811 23.1014C66.7096 23.1045 61.8382 23.1045 56.9667 23.1014C56.0659 23.1014 55.2243 23.2495 54.4481 23.7148C52.8064 24.7011 51.9967 26.5569 52.4675 28.2741C52.9415 30.0038 54.6719 31.352 56.5175 31.4115C57.157 31.4319 57.7964 31.4115 58.4358 31.4115H71.6138L72.5362 31.4092Z" fill="#FFFFFF"/>
<path d="M86.3529 21.1304L97.6654 33.258C97.643 33.3136 97.6214 33.37 97.599 33.4256C96.8171 33.4615 96.0337 33.4516 95.2531 33.3958C95.0333 33.3763 94.8103 33.1295 94.636 32.9446C92.4513 30.6247 90.274 28.3007 88.1042 25.9725C87.5447 25.3795 86.9851 24.7919 86.3457 24.1159C84.0629 26.5075 81.8784 28.9023 79.5365 31.3919C79.9489 31.4147 80.1967 31.4397 80.4445 31.4397C83.5314 31.4397 86.6191 31.4523 89.706 31.4311C90.2559 31.4311 90.6707 31.5533 91.0176 31.9857C91.3749 32.4315 91.7889 32.8349 92.1526 33.229C92.1408 33.2755 92.1247 33.3208 92.1046 33.3645C92.091 33.3856 92.0703 33.4131 92.0495 33.4154C91.9434 33.429 91.8367 33.4366 91.7298 33.4381H74.9637C75.2035 33.1318 75.3338 32.9266 75.4984 32.7503C78.6226 29.4027 81.7492 26.0568 84.8782 22.7128C85.3426 22.217 85.8054 21.7179 86.3529 21.1304Z" fill="#FFFFFF"/>
<path d="M181.238 21.1179V22.9768H159.011V21.1179H181.238Z" fill="#FFFFFF"/>
<path d="M181.231 31.4499V33.33H159.011V31.4499H181.231Z" fill="#FFFFFF"/>
<path d="M159.005 28.1017V26.3054H180.117C180.317 26.893 180.215 27.4805 180.189 28.0516C179.602 28.2153 159.962 28.2608 159.005 28.1017Z" fill="#FFFFFF"/>
<path d="M154.977 33.3504H153.1C153.064 33.3282 153.03 33.3033 152.998 33.276C152.978 33.258 152.964 33.2349 152.957 33.2094C152.929 33.0572 152.911 32.9033 152.903 32.7488C152.903 28.9718 152.909 25.1946 152.919 21.4171C152.919 21.345 152.964 21.2722 153.004 21.1492H154.977V33.3504Z" fill="#FFFFFF"/>
<path d="M0.132683 0.5H35.6351V22.6799C34.8158 22.8115 34.0245 22.7262 33.2372 22.7426C32.4747 22.7575 31.7113 22.7426 30.765 22.7426C31.0167 23.0426 31.1422 23.2236 31.2989 23.3693C32.5914 24.6118 33.8782 25.8589 35.1931 27.0778C35.3614 27.2212 35.4934 27.4009 35.5787 27.6027C35.664 27.8046 35.7003 28.0232 35.6846 28.2412C35.6519 29.4946 35.6742 30.7417 35.6742 31.9748C35.6399 31.9939 35.6044 32.0109 35.5679 32.0257C35.5448 32.032 35.5104 32.039 35.496 32.0257C35.3685 31.9343 35.2468 31.8354 35.1315 31.7296C31.0415 27.7132 26.9507 23.6881 22.8072 19.6091C23.4682 19.4352 24.094 19.5425 24.7087 19.5237C25.3481 19.5041 25.9876 19.5174 26.627 19.5174H32.2636C32.4411 18.8985 32.4914 4.85091 32.3212 3.73616C22.6897 3.71344 13.0397 3.74477 3.27232 3.72597C3.23156 4.82271 3.25554 5.88419 3.25234 6.93784C3.24834 7.98053 3.25234 9.02399 3.25234 10.0714C3.25234 11.1404 3.25234 12.2111 3.25234 13.2832V16.4168C3.25234 17.4864 3.25234 18.557 3.25234 19.6287V35.4522H0.167053C0.144673 35.4287 0.12549 35.4115 0.109504 35.3919C0.0935178 35.3723 0.0687396 35.3512 0.0647431 35.3277C0.0360147 35.2011 0.0178374 35.0725 0.0103909 34.943C0.00346362 23.6231 0 12.3032 0 0.983348C0.00305425 0.879341 0.0169816 0.775916 0.0415635 0.674694C0.065134 0.613288 0.0957007 0.554686 0.132683 0.5Z" fill="#FFFFFF"/>
<path d="M25.8908 10.087H9.7842V35.4514H6.61499C6.44314 34.8443 6.368 8.64562 6.53506 6.88301C6.822 6.86969 7.12654 6.84541 7.43347 6.84541C12.8106 6.84541 18.1875 6.84541 23.5641 6.84541H28.2743H29.1696V16.4129H16.2489C16.1826 17.5026 16.2249 18.5343 16.2185 19.5628C16.2106 20.6322 16.2185 21.7015 16.2185 22.7747V35.4655C15.6423 35.4765 15.1243 35.4906 14.6064 35.4953C14.102 35.5008 13.5984 35.4953 12.9926 35.4953C12.8991 33.6152 12.963 31.7727 12.951 29.9333C12.939 28.0821 12.951 26.2302 12.9462 24.3783C12.9414 22.5264 12.9462 20.6753 12.9462 18.8241V13.2112H25.8709C26.0091 12.1372 25.8781 11.1383 25.8908 10.087Z" fill="#FFFFFF"/>
<path d="M19.5828 20.5037L34.6743 35.3261L34.6128 35.4922H33.6992C32.6889 35.4922 31.6786 35.4796 30.669 35.4961C30.2694 35.5031 29.9617 35.4052 29.6731 35.1201C26.3912 31.891 23.1077 28.6642 19.8226 25.4398C19.6363 25.2565 19.4717 24.958 19.4653 24.7089C19.4301 23.4077 19.4477 22.1057 19.4533 20.8037C19.4501 20.7379 19.5029 20.6729 19.5828 20.5037Z" fill="#FFFFFF"/>
<path d="M19.4557 29.3857L25.6902 35.4381C25.5317 35.4661 25.3715 35.4844 25.2106 35.4929C24.066 35.4929 22.9215 35.4718 21.7777 35.5C21.3348 35.511 21.0583 35.3206 20.7242 35.0707C19.6899 34.2873 19.2431 33.3332 19.4133 32.0335C19.5276 31.1616 19.4469 30.2646 19.4557 29.3794C19.4629 29.3598 19.4901 29.3403 19.4557 29.3857Z" fill="#FFFFFF"/>
</g>
<defs>
<clipPath id="clip0_44_2">
<rect width="233" height="35" fill="white" transform="translate(0 0.5)"/>
</clipPath>
</defs>
</svg>
