<?xml version="1.0" encoding="utf-8"?>
<!-- Generator: Adobe Illustrator 24.0.2, SVG Export Plug-In . SVG Version: 6.00 Build 0)  -->
<svg version="1.1" id="Capa_1" xmlns="http://www.w3.org/2000/svg" xmlns:xlink="http://www.w3.org/1999/xlink" x="0px" y="0px"
	 viewBox="0 0 248.2 35" style="enable-background:new 0 0 248.2 35;" xml:space="preserve">
<style type="text/css">
	.st0{fill:#FFFFFF;}
</style>
<g>
	<path class="st0" d="M0,12.3c0-6.6,5.4-12,11.9-12H24v4.1H11.9c-4.2,0-7.8,3.5-7.8,7.8v10.7c0,4.3,3.6,7.8,7.8,7.8H24v4.1H11.9
		C5.4,34.7,0,29.3,0,22.8V12.3z M11.9,9H24V4.9H11.9c-3.9,0-7.3,3.3-7.3,7.3v5.1H24v-4.1H8.8v-0.9C8.8,10.4,10.2,9,11.9,9z
		 M4.6,17.7v5.1c0,4,3.4,7.3,7.3,7.3H24V26H11.9c-1.7,0-3.1-1.4-3.1-3.1V22H24v-4.2L4.6,17.7L4.6,17.7z"/>
	<path class="st0" d="M43.3,4.3h-4.8c-4.3,0-7.9,3.5-7.9,7.9v22.5h-4.2V12.2c0-6.7,5.5-12.1,12.1-12.1h4.8c6.6,0,12.2,5.4,12.2,12.1
		v22.5h-4.3V12.2C51.2,7.8,47.7,4.3,43.3,4.3z M31.1,21.8v-9.6c0-4.1,3.4-7.5,7.4-7.5h4.8c4.1,0,7.4,3.4,7.4,7.5v9.6H31.1z
		 M35.4,26.7v8h-4.3V22.4h19.6v12.3h-4.3v-8H35.4z M35.4,12.2v5.4h11.1v-5.4c0-1.8-1.4-3.2-3.2-3.2h-4.8C36.8,9,35.4,10.4,35.4,12.2
		z"/>
	<path class="st0" d="M68.3,4.1c-8.8-0.1-8.7,13.7,0.5,13.7h4.3c4.5,0,6.8,3,6.8,6.1c0,3.7-2.2,6.6-6.1,6.6h-4.1
		c-3.4-0.1-6.8-1.8-7.3-5.3l4.1-0.8c0.4,1.1,1.4,1.9,2.5,2h4.8c2.7,0,2.6-4.5,0-4.5h-4.4C53.6,21.8,54,0.1,68.2,0.1h4.6
		c5.3,0,10.5,3.6,11.4,8.9l-3.9,0.7c-0.5-3.8-4.2-5.6-7.9-5.6H68.3z M73.9,31c4.7,0,6.5-3.3,6.5-7.1c0-3.3-2.3-6.6-7.2-6.6h-4.4
		c-8.5-0.1-8.6-12.9-0.5-12.9h4.3c3.4,0,6.8,1.8,7.3,5.3l-4.1,0.8c-0.4-1.1-1.4-1.9-2.5-1.9h-4.8c-2.7,0-2.7,4.5,0,4.5h4.4
		c7.7,0,11.7,5.3,11.8,10.7c0,5.4-3.9,10.9-11.6,10.9h-3.4C64.2,34.9,59,31.3,58,26l4-0.7c0.5,3.8,4.2,5.7,7.9,5.7H73.9z"/>
	<path class="st0" d="M88.5,13.3c-1.9-2-2.4-4.3-2.4-7v-6h4.1v6.1c0,1.9,0.6,3.4,1.8,4.7l8.1,8.7v14.8h-4V21.4L88.5,13.3z M90.7,0.3
		h4.1v5.9c0,0.7,0.1,1.4,0.6,1.9l4.9,5.5l4.9-5.5c0.5-0.5,0.7-1.2,0.7-1.9V0.3h4.1v6.1c0,1.8-0.5,3.1-1.7,4.4l-8,8.6l-8-8.6
		c-1.2-1.3-1.7-2.6-1.7-4.4L90.7,0.3L90.7,0.3z M100.6,19.9l8.2-8.7c1.3-1.3,1.8-2.8,1.8-4.7V0.3h4.1v6c0,2.7-0.6,5-2.4,7l-7.6,8.1
		v13.2h-4.1V19.9z"/>
	<path class="st0" d="M150.2,14.3v-2c0-4.4-3.6-7.9-7.9-7.9h-3.2c-4.3,0-7.9,3.5-7.9,7.8v22.5h-4.1V12.1c0-6.5,5.5-11.9,12-11.9h3.1
		c6.6,0,12,5.4,12,12v2c0,6.6-5.4,12-12,12H136v8.4h-4.2V22.1h10.5C146.6,22.1,150.2,18.6,150.2,14.3z M131.9,12.2
		c0-4,3.1-7.4,7.3-7.4h3.2c4,0,7.4,3.4,7.4,7.4v2c0,4-3.3,7.3-7.4,7.3h-10.5V12.2z M145.5,12.2c0-1.8-1.4-3.2-3.1-3.2h-3.2
		c-1.7,0-3.1,1.4-3.1,3.2v5.2h6.4c1.7,0,3.1-1.5,3.1-3.2L145.5,12.2L145.5,12.2z"/>
	<path class="st0" d="M173,4.3h-4.8c-4.3,0-7.9,3.5-7.9,7.9v22.5h-4.2V12.2c0-6.7,5.5-12.1,12.1-12.1h4.8c6.6,0,12.2,5.4,12.2,12.1
		v22.5h-4.3V12.2C180.9,7.8,177.4,4.3,173,4.3z M160.8,21.8v-9.6c0-4.1,3.4-7.5,7.4-7.5h4.8c4.1,0,7.4,3.4,7.4,7.5v9.6H160.8z
		 M165.1,26.7v8h-4.3V22.4h19.6v12.3h-4.3v-8H165.1z M165.1,12.2v5.4h11.1v-5.4c0-1.8-1.4-3.2-3.2-3.2h-4.8
		C166.5,9,165.1,10.4,165.1,12.2z"/>
	<path class="st0" d="M205.1,17.6v-4.3h17.1V18c0,10.1-6.9,17-17,17c-9.6,0-17.4-7.9-17.4-17.5c0-9.7,7.8-17.5,17.5-17.5
		c3.5,0,6.6,1,9.4,2.7l-2.1,3.7c-2-1.3-4.6-2.1-7.3-2.1c-7.4,0-13.2,6-13.2,13.3s5.8,13.2,13.1,13.2c7.2,0.1,13.3-5.9,13.4-13.2
		C218.6,17.6,205.1,17.6,205.1,17.6z M212.2,6.9l-2,3.7c-1.4-1-3.2-1.6-5-1.6c-4.7,0-8.6,3.8-8.6,8.5s3.8,8.5,8.5,8.6
		c2.8,0,5.6-1.5,7.1-3.8H205V18h12.8c-0.3,6.8-6,12.2-12.8,12.2c-7,0-12.7-5.7-12.7-12.8S198,4.7,205.1,4.7
		C207.8,4.8,210.2,5.6,212.2,6.9z"/>
	<path class="st0" d="M224.2,12.3c0-6.6,5.4-12,11.9-12h12.1v4.1h-12.1c-4.2,0-7.8,3.5-7.8,7.8v10.7c0,4.3,3.6,7.8,7.8,7.8h12.1v4.1
		h-12.1c-6.5,0-11.9-5.4-11.9-11.9V12.3z M236.1,9h12.1V4.9h-12.1c-3.9,0-7.3,3.3-7.3,7.3v5.1h19.4v-4.1h-15.3v-0.9
		C232.9,10.4,234.4,9,236.1,9z M228.8,17.7v5.1c0,4,3.4,7.3,7.3,7.3h12.1V26h-12.1c-1.7,0-3.1-1.4-3.1-3.1V22h15.3v-4.2L228.8,17.7
		L228.8,17.7z"/>
</g>
</svg>
