<svg version="1.2" xmlns="http://www.w3.org/2000/svg" viewBox="0 0 58 35" width="58" height="35">
	<title>logo-svg</title>
	<style>
		.s0 { fill: #ffffff } 
	</style>
	<g>
		<path fill-rule="evenodd" class="s0" d="m2 12.4c0-6.2 5.1-11.3 11.2-11.3h11.4v3.9h-11.4c-3.9 0-7.3 3.3-7.3 7.3v10.1c0 4.1 3.4 7.4 7.3 7.4h11.4v3.9h-11.4c-6.1-0.1-11.2-5.2-11.2-11.4zm8.3 0v0.9h14.3v3.8h-18.3v-4.8c0-3.7 3.2-6.9 6.9-6.9h11.4v3.9h-11.4c-1.6 0-2.9 1.3-2.9 3.1zm14.3 5.2v4h-14.3v0.8c0 1.6 1.3 3 2.9 3h11.4v3.8h-11.4c-3.7 0-6.9-3.1-6.9-6.9v-4.8zm27.6-3.3v-1.9c0-4.1-3.4-7.4-7.5-7.4h-3c-4 0-7.4 3.3-7.4 7.3v21.3h-3.9v-21.4c0-6.1 5.2-11.2 11.3-11.2h2.9c6.3 0 11.4 5.1 11.4 11.3v1.9c0 6.3-5.1 11.3-11.4 11.3h-5.8v8h-4v-11.8h9.9c4.1 0 7.5-3.3 7.5-7.4zm-17.3-2c0-3.7 3-6.9 6.9-6.9h3c3.8 0 7 3.2 7 6.9v1.9c0 3.8-3.1 6.9-7 6.9h-9.9zm12.9 0c0-1.7-1.4-3-3-3h-3c-1.6 0-2.9 1.3-2.9 3v4.9h6c1.6 0 3-1.4 3-3z"/>
	</g>
</svg>