<svg width="1920" height="87" viewBox="0 0 1920 87" fill="none" xmlns="http://www.w3.org/2000/svg">
<path d="M0.328834 0H88.3156V54.9693C86.2852 55.2954 84.324 55.0838 82.3728 55.1246C80.483 55.1615 78.5912 55.1246 76.2458 55.1246C76.8698 55.8682 77.1808 56.3167 77.5691 56.6778C80.7722 59.757 83.9615 62.8478 87.2202 65.8688C87.6373 66.224 87.9644 66.6693 88.1759 67.1696C88.3873 67.67 88.4772 68.2116 88.4384 68.7519C88.3572 71.8582 88.4127 74.9491 88.4127 78.005C88.3276 78.0524 88.2396 78.0946 88.1492 78.1312C88.0918 78.1467 88.0066 78.1642 87.9709 78.1312C87.6549 77.9048 87.3532 77.6597 87.0676 77.3973C76.9312 67.4433 66.7928 57.468 56.5237 47.3586C58.162 46.9276 59.713 47.1936 61.2364 47.147C62.8211 47.0985 64.4058 47.1315 65.9906 47.1315H79.9601C80.3998 45.5977 80.5246 10.783 80.1027 8.02028C56.2325 7.96397 32.3168 8.04163 8.10991 7.99504C8.00888 10.7131 8.06831 13.3438 8.06039 15.9551C8.05048 18.5392 8.06039 21.1253 8.06039 23.7211C8.06039 26.3705 8.06039 29.0239 8.06039 31.6812V39.4471C8.06039 42.0979 8.06039 44.7512 8.06039 47.4072V86.6232H0.414013C0.358548 86.565 0.311005 86.5223 0.271387 86.4737C0.231768 86.4252 0.17036 86.3728 0.160455 86.3145C0.0892565 86.0009 0.044207 85.6821 0.025752 85.3613C0.00858401 57.3068 0 29.2524 0 1.1979C0.00756944 0.940134 0.042086 0.683812 0.103008 0.432951C0.161424 0.280767 0.237178 0.13553 0.328834 0Z" fill="white" fill-opacity="0.1"/>
<path d="M64.1661 23.7595H24.2485V86.6209H16.3941C15.9682 85.1162 15.782 20.1871 16.196 15.8188C16.9072 15.7858 17.6619 15.7256 18.4226 15.7256C31.7489 15.7256 45.0746 15.7256 58.3996 15.7256H70.0732H72.2919V39.4369H40.2702C40.1058 42.1376 40.2108 44.6945 40.1949 47.2437C40.1751 49.8938 40.1949 52.5439 40.1949 55.2038V86.6558C38.7667 86.683 37.483 86.7179 36.1994 86.7296C34.9494 86.7432 33.7015 86.7296 32.1999 86.7296C31.9681 82.07 32.1266 77.5037 32.0969 72.945C32.0672 68.3573 32.0969 63.7676 32.085 59.178C32.0731 54.5883 32.085 50.0006 32.085 45.4128V31.5021H64.1166C64.4593 28.8403 64.1344 26.3649 64.1661 23.7595Z" fill="white" fill-opacity="0.1"/>
<path d="M48.5328 49.5762L85.9346 86.311L85.7821 86.7226H83.5179C81.014 86.7226 78.5101 86.6915 76.0082 86.7323C75.0177 86.7498 74.2551 86.5071 73.54 85.8004C65.4063 77.7976 57.2686 69.8006 49.127 61.8095C48.6655 61.3552 48.2574 60.6155 48.2416 59.9981C48.1544 56.7733 48.198 53.5465 48.2118 50.3198C48.2039 50.1567 48.3347 49.9955 48.5328 49.5762Z" fill="white" fill-opacity="0.1"/>
<path d="M48.2178 71.5883L63.669 86.5883C63.2761 86.6576 62.8791 86.703 62.4804 86.7242C59.6438 86.7242 56.8071 86.6717 53.9724 86.7416C52.8749 86.7688 52.1895 86.297 51.3615 85.6777C48.7982 83.7362 47.6909 81.3715 48.1128 78.1506C48.3961 75.9897 48.196 73.7667 48.2178 71.5728C48.2356 71.5243 48.303 71.4757 48.2178 71.5883Z" fill="white" fill-opacity="0.1"/>
<path d="M96.776 0H184.763V54.9693C182.732 55.2954 180.771 55.0838 178.82 55.1246C176.93 55.1615 175.038 55.1246 172.693 55.1246C173.317 55.8682 173.628 56.3167 174.016 56.6778C177.219 59.757 180.409 62.8478 183.667 65.8688C184.084 66.224 184.412 66.6693 184.623 67.1696C184.834 67.67 184.924 68.2116 184.886 68.7519C184.804 71.8582 184.86 74.9491 184.86 78.005C184.775 78.0524 184.687 78.0946 184.596 78.1312C184.539 78.1467 184.454 78.1642 184.418 78.1312C184.102 77.9048 183.8 77.6597 183.515 77.3973C173.378 67.4433 163.24 57.468 152.971 47.3586C154.609 46.9276 156.16 47.1936 157.684 47.147C159.268 47.0985 160.853 47.1315 162.438 47.1315H176.407C176.847 45.5977 176.972 10.783 176.55 8.02028C152.68 7.96397 128.764 8.04163 104.557 7.99504C104.456 10.7131 104.516 13.3438 104.508 15.9551C104.498 18.5392 104.508 21.1253 104.508 23.7211C104.508 26.3705 104.508 29.0239 104.508 31.6812V39.4471C104.508 42.0979 104.508 44.7512 104.508 47.4072V86.6232H96.8612C96.8058 86.565 96.7582 86.5223 96.7186 86.4737C96.679 86.4252 96.6176 86.3728 96.6077 86.3145C96.5365 86.0009 96.4914 85.6821 96.473 85.3613C96.4558 57.3068 96.4472 29.2524 96.4472 1.1979C96.4548 0.940134 96.4893 0.683812 96.5502 0.432951C96.6086 0.280767 96.6844 0.13553 96.776 0Z" fill="white" fill-opacity="0.1"/>
<path d="M160.613 23.7595H120.696V86.6209H112.841C112.415 85.1162 112.229 20.1871 112.643 15.8188C113.354 15.7858 114.109 15.7256 114.87 15.7256C128.196 15.7256 141.522 15.7256 154.847 15.7256H166.52H168.739V39.4369H136.717C136.553 42.1376 136.658 44.6945 136.642 47.2437C136.622 49.8938 136.642 52.5439 136.642 55.2038V86.6558C135.214 86.683 133.93 86.7179 132.647 86.7296C131.397 86.7432 130.149 86.7296 128.647 86.7296C128.415 82.07 128.574 77.5037 128.544 72.945C128.514 68.3573 128.544 63.7676 128.532 59.178C128.52 54.5883 128.532 50.0006 128.532 45.4128V31.5021H160.564C160.906 28.8403 160.582 26.3649 160.613 23.7595Z" fill="white" fill-opacity="0.1"/>
<path d="M144.98 49.5762L182.382 86.311L182.229 86.7226H179.965C177.461 86.7226 174.957 86.6915 172.455 86.7323C171.465 86.7498 170.702 86.5071 169.987 85.8004C161.853 77.7976 153.716 69.8006 145.574 61.8095C145.113 61.3552 144.705 60.6155 144.689 59.9981C144.602 56.7733 144.645 53.5465 144.659 50.3198C144.651 50.1567 144.782 49.9955 144.98 49.5762Z" fill="white" fill-opacity="0.1"/>
<path d="M144.665 71.5883L160.116 86.5883C159.723 86.6576 159.326 86.703 158.928 86.7242C156.091 86.7242 153.254 86.6717 150.42 86.7416C149.322 86.7688 148.637 86.297 147.809 85.6777C145.245 83.7362 144.138 81.3715 144.56 78.1506C144.843 75.9897 144.643 73.7667 144.665 71.5728C144.683 71.5243 144.75 71.4757 144.665 71.5883Z" fill="white" fill-opacity="0.1"/>
<path d="M193.223 0H281.21V54.9693C279.18 55.2954 277.218 55.0838 275.267 55.1246C273.377 55.1615 271.486 55.1246 269.14 55.1246C269.764 55.8682 270.075 56.3167 270.463 56.6778C273.667 59.757 276.856 62.8478 280.115 65.8688C280.532 66.224 280.859 66.6693 281.07 67.1696C281.282 67.67 281.372 68.2116 281.333 68.7519C281.252 71.8582 281.307 74.9491 281.307 78.005C281.222 78.0524 281.134 78.0946 281.044 78.1312C280.986 78.1467 280.901 78.1642 280.865 78.1312C280.549 77.9048 280.248 77.6597 279.962 77.3973C269.826 67.4433 259.687 57.468 249.418 47.3586C251.056 46.9276 252.607 47.1936 254.131 47.147C255.716 47.0985 257.3 47.1315 258.885 47.1315H272.854C273.294 45.5977 273.419 10.783 272.997 8.02028C249.127 7.96397 225.211 8.04163 201.004 7.99504C200.903 10.7131 200.963 13.3438 200.955 15.9551C200.945 18.5392 200.955 21.1253 200.955 23.7211C200.955 26.3705 200.955 29.0239 200.955 31.6812V39.4471C200.955 42.0979 200.955 44.7512 200.955 47.4072V86.6232H193.308C193.253 86.565 193.205 86.5223 193.166 86.4737C193.126 86.4252 193.065 86.3728 193.055 86.3145C192.984 86.0009 192.939 85.6821 192.92 85.3613C192.903 57.3068 192.894 29.2524 192.894 1.1979C192.902 0.940134 192.936 0.683812 192.997 0.432951C193.056 0.280767 193.132 0.13553 193.223 0Z" fill="white" fill-opacity="0.1"/>
<path d="M257.061 23.7595H217.143V86.6209H209.289C208.863 85.1162 208.676 20.1871 209.09 15.8188C209.802 15.7858 210.556 15.7256 211.317 15.7256C224.643 15.7256 237.969 15.7256 251.294 15.7256H262.968H265.186V39.4369H233.165C233 42.1376 233.105 44.6945 233.089 47.2437C233.07 49.8938 233.089 52.5439 233.089 55.2038V86.6558C231.661 86.683 230.377 86.7179 229.094 86.7296C227.844 86.7432 226.596 86.7296 225.094 86.7296C224.863 82.07 225.021 77.5037 224.991 72.945C224.962 68.3573 224.991 63.7676 224.979 59.178C224.968 54.5883 224.979 50.0006 224.979 45.4128V31.5021H257.011C257.354 28.8403 257.029 26.3649 257.061 23.7595Z" fill="white" fill-opacity="0.1"/>
<path d="M241.427 49.5762L278.829 86.311L278.676 86.7226H276.412C273.908 86.7226 271.405 86.6915 268.903 86.7323C267.912 86.7498 267.149 86.5071 266.434 85.8004C258.301 77.7976 250.163 69.8006 242.021 61.8095C241.56 61.3552 241.152 60.6155 241.136 59.9981C241.049 56.7733 241.092 53.5465 241.106 50.3198C241.098 50.1567 241.229 49.9955 241.427 49.5762Z" fill="white" fill-opacity="0.1"/>
<path d="M241.112 71.5883L256.563 86.5883C256.17 86.6576 255.774 86.703 255.375 86.7242C252.538 86.7242 249.701 86.6717 246.867 86.7416C245.769 86.7688 245.084 86.297 244.256 85.6777C241.693 83.7362 240.585 81.3715 241.007 78.1506C241.29 75.9897 241.09 73.7667 241.112 71.5728C241.13 71.5243 241.197 71.4757 241.112 71.5883Z" fill="white" fill-opacity="0.1"/>
<path d="M289.67 0H377.657V54.9693C375.627 55.2954 373.666 55.0838 371.714 55.1246C369.825 55.1615 367.933 55.1246 365.587 55.1246C366.211 55.8682 366.522 56.3167 366.911 56.6778C370.114 59.757 373.303 62.8478 376.562 65.8688C376.979 66.224 377.306 66.6693 377.517 67.1696C377.729 67.67 377.819 68.2116 377.78 68.7519C377.699 71.8582 377.754 74.9491 377.754 78.005C377.669 78.0524 377.581 78.0946 377.491 78.1312C377.433 78.1467 377.348 78.1642 377.313 78.1312C376.997 77.9048 376.695 77.6597 376.409 77.3973C366.273 67.4433 356.134 57.468 345.865 47.3586C347.504 46.9276 349.055 47.1936 350.578 47.147C352.163 47.0985 353.747 47.1315 355.332 47.1315H369.302C369.741 45.5977 369.866 10.783 369.444 8.02028C345.574 7.96397 321.658 8.04163 297.452 7.99504C297.35 10.7131 297.41 13.3438 297.402 15.9551C297.392 18.5392 297.402 21.1253 297.402 23.7211C297.402 26.3705 297.402 29.0239 297.402 31.6812V39.4471C297.402 42.0979 297.402 44.7512 297.402 47.4072V86.6232H289.756C289.7 86.565 289.653 86.5223 289.613 86.4737C289.573 86.4252 289.512 86.3728 289.502 86.3145C289.431 86.0009 289.386 85.6821 289.367 85.3613C289.35 57.3068 289.342 29.2524 289.342 1.1979C289.349 0.940134 289.384 0.683812 289.445 0.432951C289.503 0.280767 289.579 0.13553 289.67 0Z" fill="white" fill-opacity="0.1"/>
<path d="M353.508 23.7595H313.59V86.6209H305.736C305.31 85.1162 305.124 20.1871 305.538 15.8188C306.249 15.7858 307.003 15.7256 307.764 15.7256C321.091 15.7256 334.416 15.7256 347.741 15.7256H359.415H361.633V39.4369H329.612C329.447 42.1376 329.552 44.6945 329.537 47.2437C329.517 49.8938 329.537 52.5439 329.537 55.2038V86.6558C328.108 86.683 326.825 86.7179 325.541 86.7296C324.291 86.7432 323.043 86.7296 321.542 86.7296C321.31 82.07 321.468 77.5037 321.439 72.945C321.409 68.3573 321.439 63.7676 321.427 59.178C321.415 54.5883 321.427 50.0006 321.427 45.4128V31.5021H353.458C353.801 28.8403 353.476 26.3649 353.508 23.7595Z" fill="white" fill-opacity="0.1"/>
<path d="M337.874 49.5762L375.276 86.311L375.124 86.7226H372.859C370.356 86.7226 367.852 86.6915 365.35 86.7323C364.359 86.7498 363.597 86.5071 362.882 85.8004C354.748 77.7976 346.61 69.8006 338.469 61.8095C338.007 61.3552 337.599 60.6155 337.583 59.9981C337.496 56.7733 337.54 53.5465 337.553 50.3198C337.546 50.1567 337.676 49.9955 337.874 49.5762Z" fill="white" fill-opacity="0.1"/>
<path d="M337.559 71.5883L353.011 86.5883C352.618 86.6576 352.221 86.703 351.822 86.7242C348.985 86.7242 346.149 86.6717 343.314 86.7416C342.217 86.7688 341.531 86.297 340.703 85.6777C338.14 83.7362 337.032 81.3715 337.454 78.1506C337.738 75.9897 337.538 73.7667 337.559 71.5728C337.577 71.5243 337.645 71.4757 337.559 71.5883Z" fill="white" fill-opacity="0.1"/>
<path d="M386.118 0H474.104V54.9693C472.074 55.2954 470.113 55.0838 468.162 55.1246C466.272 55.1615 464.38 55.1246 462.035 55.1246C462.659 55.8682 462.97 56.3167 463.358 56.6778C466.561 59.757 469.75 62.8478 473.009 65.8688C473.426 66.224 473.753 66.6693 473.965 67.1696C474.176 67.67 474.266 68.2116 474.227 68.7519C474.146 71.8582 474.201 74.9491 474.201 78.005C474.116 78.0524 474.028 78.0946 473.938 78.1312C473.881 78.1467 473.795 78.1642 473.76 78.1312C473.444 77.9048 473.142 77.6597 472.856 77.3973C462.72 67.4433 452.582 57.468 442.313 47.3586C443.951 46.9276 445.502 47.1936 447.025 47.147C448.61 47.0985 450.195 47.1315 451.779 47.1315H465.749C466.189 45.5977 466.313 10.783 465.892 8.02028C442.021 7.96397 418.106 8.04163 393.899 7.99504C393.798 10.7131 393.857 13.3438 393.849 15.9551C393.839 18.5392 393.849 21.1253 393.849 23.7211C393.849 26.3705 393.849 29.0239 393.849 31.6812V39.4471C393.849 42.0979 393.849 44.7512 393.849 47.4072V86.6232H386.203C386.147 86.565 386.1 86.5223 386.06 86.4737C386.021 86.4252 385.959 86.3728 385.949 86.3145C385.878 86.0009 385.833 85.6821 385.815 85.3613C385.797 57.3068 385.789 29.2524 385.789 1.1979C385.796 0.940134 385.831 0.683812 385.892 0.432951C385.95 0.280767 386.026 0.13553 386.118 0Z" fill="white" fill-opacity="0.1"/>
<path d="M449.955 23.7595H410.037V86.6209H402.183C401.757 85.1162 401.571 20.1871 401.985 15.8188C402.696 15.7858 403.451 15.7256 404.211 15.7256C417.538 15.7256 430.863 15.7256 444.188 15.7256H455.862H458.081V39.4369H426.059C425.895 42.1376 426 44.6945 425.984 47.2437C425.964 49.8938 425.984 52.5439 425.984 55.2038V86.6558C424.555 86.683 423.272 86.7179 421.988 86.7296C420.738 86.7432 419.49 86.7296 417.989 86.7296C417.757 82.07 417.915 77.5037 417.886 72.945C417.856 68.3573 417.886 63.7676 417.874 59.178C417.862 54.5883 417.874 50.0006 417.874 45.4128V31.5021H449.905C450.248 28.8403 449.923 26.3649 449.955 23.7595Z" fill="white" fill-opacity="0.1"/>
<path d="M434.322 49.5762L471.723 86.311L471.571 86.7226H469.307C466.803 86.7226 464.299 86.6915 461.797 86.7323C460.807 86.7498 460.044 86.5071 459.329 85.8004C451.195 77.7976 443.057 69.8006 434.916 61.8095C434.454 61.3552 434.046 60.6155 434.03 59.9981C433.943 56.7733 433.987 53.5465 434.001 50.3198C433.993 50.1567 434.123 49.9955 434.322 49.5762Z" fill="white" fill-opacity="0.1"/>
<path d="M434.007 71.5883L449.458 86.5883C449.065 86.6576 448.668 86.703 448.269 86.7242C445.433 86.7242 442.596 86.6717 439.761 86.7416C438.664 86.7688 437.978 86.297 437.15 85.6777C434.587 83.7362 433.48 81.3715 433.902 78.1506C434.185 75.9897 433.985 73.7667 434.007 71.5728C434.024 71.5243 434.092 71.4757 434.007 71.5883Z" fill="white" fill-opacity="0.1"/>
<path d="M482.565 0H570.552V54.9693C568.521 55.2954 566.56 55.0838 564.609 55.1246C562.719 55.1615 560.827 55.1246 558.482 55.1246C559.106 55.8682 559.417 56.3167 559.805 56.6778C563.008 59.757 566.198 62.8478 569.456 65.8688C569.873 66.224 570.2 66.6693 570.412 67.1696C570.623 67.67 570.713 68.2116 570.674 68.7519C570.593 71.8582 570.649 74.9491 570.649 78.005C570.564 78.0524 570.476 78.0946 570.385 78.1312C570.328 78.1467 570.243 78.1642 570.207 78.1312C569.891 77.9048 569.589 77.6597 569.304 77.3973C559.167 67.4433 549.029 57.468 538.76 47.3586C540.398 46.9276 541.949 47.1936 543.472 47.147C545.057 47.0985 546.642 47.1315 548.227 47.1315H562.196C562.636 45.5977 562.761 10.783 562.339 8.02028C538.469 7.96397 514.553 8.04163 490.346 7.99504C490.245 10.7131 490.304 13.3438 490.296 15.9551C490.287 18.5392 490.296 21.1253 490.296 23.7211C490.296 26.3705 490.296 29.0239 490.296 31.6812V39.4471C490.296 42.0979 490.296 44.7512 490.296 47.4072V86.6232H482.65C482.595 86.565 482.547 86.5223 482.507 86.4737C482.468 86.4252 482.406 86.3728 482.396 86.3145C482.325 86.0009 482.28 85.6821 482.262 85.3613C482.245 57.3068 482.236 29.2524 482.236 1.1979C482.244 0.940134 482.278 0.683812 482.339 0.432951C482.397 0.280767 482.473 0.13553 482.565 0Z" fill="white" fill-opacity="0.1"/>
<path d="M546.402 23.7595H506.485V86.6209H498.63C498.204 85.1162 498.018 20.1871 498.432 15.8188C499.143 15.7858 499.898 15.7256 500.659 15.7256C513.985 15.7256 527.311 15.7256 540.636 15.7256H552.309H554.528V39.4369H522.506C522.342 42.1376 522.447 44.6945 522.431 47.2437C522.411 49.8938 522.431 52.5439 522.431 55.2038V86.6558C521.003 86.683 519.719 86.7179 518.435 86.7296C517.185 86.7432 515.937 86.7296 514.436 86.7296C514.204 82.07 514.363 77.5037 514.333 72.945C514.303 68.3573 514.333 63.7676 514.321 59.178C514.309 54.5883 514.321 50.0006 514.321 45.4128V31.5021H546.353C546.695 28.8403 546.37 26.3649 546.402 23.7595Z" fill="white" fill-opacity="0.1"/>
<path d="M530.769 49.5762L568.171 86.311L568.018 86.7226H565.754C563.25 86.7226 560.746 86.6915 558.244 86.7323C557.254 86.7498 556.491 86.5071 555.776 85.8004C547.642 77.7976 539.505 69.8006 531.363 61.8095C530.901 61.3552 530.493 60.6155 530.478 59.9981C530.39 56.7733 530.434 53.5465 530.448 50.3198C530.44 50.1567 530.571 49.9955 530.769 49.5762Z" fill="white" fill-opacity="0.1"/>
<path d="M530.454 71.5883L545.905 86.5883C545.512 86.6576 545.115 86.703 544.716 86.7242C541.88 86.7242 539.043 86.6717 536.208 86.7416C535.111 86.7688 534.426 86.297 533.598 85.6777C531.034 83.7362 529.927 81.3715 530.349 78.1506C530.632 75.9897 530.432 73.7667 530.454 71.5728C530.472 71.5243 530.539 71.4757 530.454 71.5883Z" fill="white" fill-opacity="0.1"/>
<path d="M579.012 0H666.999V54.9693C664.968 55.2954 663.007 55.0838 661.056 55.1246C659.166 55.1615 657.274 55.1246 654.929 55.1246C655.553 55.8682 655.864 56.3167 656.252 56.6778C659.455 59.757 662.645 62.8478 665.903 65.8688C666.32 66.224 666.648 66.6693 666.859 67.1696C667.071 67.67 667.16 68.2116 667.122 68.7519C667.04 71.8582 667.096 74.9491 667.096 78.005C667.011 78.0524 666.923 78.0946 666.832 78.1312C666.775 78.1467 666.69 78.1642 666.654 78.1312C666.338 77.9048 666.036 77.6597 665.751 77.3973C655.614 67.4433 645.476 57.468 635.207 47.3586C636.845 46.9276 638.396 47.1936 639.92 47.147C641.504 47.0985 643.089 47.1315 644.674 47.1315H658.643C659.083 45.5977 659.208 10.783 658.786 8.02028C634.916 7.96397 611 8.04163 586.793 7.99504C586.692 10.7131 586.752 13.3438 586.744 15.9551C586.734 18.5392 586.744 21.1253 586.744 23.7211C586.744 26.3705 586.744 29.0239 586.744 31.6812V39.4471C586.744 42.0979 586.744 44.7512 586.744 47.4072V86.6232H579.097C579.042 86.565 578.994 86.5223 578.955 86.4737C578.915 86.4252 578.854 86.3728 578.844 86.3145C578.772 86.0009 578.727 85.6821 578.709 85.3613C578.692 57.3068 578.683 29.2524 578.683 1.1979C578.691 0.940134 578.725 0.683812 578.786 0.432951C578.845 0.280767 578.92 0.13553 579.012 0Z" fill="white" fill-opacity="0.1"/>
<path d="M642.849 23.7595H602.932V86.6209H595.077C594.651 85.1162 594.465 20.1871 594.879 15.8188C595.59 15.7858 596.345 15.7256 597.106 15.7256C610.432 15.7256 623.758 15.7256 637.083 15.7256H648.756H650.975V39.4369H618.953C618.789 42.1376 618.894 44.6945 618.878 47.2437C618.858 49.8938 618.878 52.5439 618.878 55.2038V86.6558C617.45 86.683 616.166 86.7179 614.883 86.7296C613.633 86.7432 612.385 86.7296 610.883 86.7296C610.651 82.07 610.81 77.5037 610.78 72.945C610.75 68.3573 610.78 63.7676 610.768 59.178C610.756 54.5883 610.768 50.0006 610.768 45.4128V31.5021H642.8C643.143 28.8403 642.818 26.3649 642.849 23.7595Z" fill="white" fill-opacity="0.1"/>
<path d="M627.216 49.5762L664.618 86.311L664.465 86.7226H662.201C659.697 86.7226 657.193 86.6915 654.691 86.7323C653.701 86.7498 652.938 86.5071 652.223 85.8004C644.089 77.7976 635.952 69.8006 627.81 61.8095C627.349 61.3552 626.941 60.6155 626.925 59.9981C626.838 56.7733 626.881 53.5465 626.895 50.3198C626.887 50.1567 627.018 49.9955 627.216 49.5762Z" fill="white" fill-opacity="0.1"/>
<path d="M626.901 71.5883L642.352 86.5883C641.959 86.6576 641.562 86.703 641.164 86.7242C638.327 86.7242 635.49 86.6717 632.656 86.7416C631.558 86.7688 630.873 86.297 630.045 85.6777C627.481 83.7362 626.374 81.3715 626.796 78.1506C627.079 75.9897 626.879 73.7667 626.901 71.5728C626.919 71.5243 626.986 71.4757 626.901 71.5883Z" fill="white" fill-opacity="0.1"/>
<path d="M675.459 0H763.446V54.9693C761.416 55.2954 759.454 55.0838 757.503 55.1246C755.613 55.1615 753.722 55.1246 751.376 55.1246C752 55.8682 752.311 56.3167 752.7 56.6778C755.903 59.757 759.092 62.8478 762.351 65.8688C762.768 66.224 763.095 66.6693 763.306 67.1696C763.518 67.67 763.608 68.2116 763.569 68.7519C763.488 71.8582 763.543 74.9491 763.543 78.005C763.458 78.0524 763.37 78.0946 763.28 78.1312C763.222 78.1467 763.137 78.1642 763.101 78.1312C762.785 77.9048 762.484 77.6597 762.198 77.3973C752.062 67.4433 741.923 57.468 731.654 47.3586C733.292 46.9276 734.843 47.1936 736.367 47.147C737.952 47.0985 739.536 47.1315 741.121 47.1315H755.09C755.53 45.5977 755.655 10.783 755.233 8.02028C731.363 7.96397 707.447 8.04163 683.24 7.99504C683.139 10.7131 683.199 13.3438 683.191 15.9551C683.181 18.5392 683.191 21.1253 683.191 23.7211C683.191 26.3705 683.191 29.0239 683.191 31.6812V39.4471C683.191 42.0979 683.191 44.7512 683.191 47.4072V86.6232H675.544C675.489 86.565 675.441 86.5223 675.402 86.4737C675.362 86.4252 675.301 86.3728 675.291 86.3145C675.22 86.0009 675.175 85.6821 675.156 85.3613C675.139 57.3068 675.13 29.2524 675.13 1.1979C675.138 0.940134 675.173 0.683812 675.233 0.432951C675.292 0.280767 675.368 0.13553 675.459 0Z" fill="white" fill-opacity="0.1"/>
<path d="M739.297 23.7595H699.379V86.6209H691.525C691.099 85.1162 690.912 20.1871 691.326 15.8188C692.038 15.7858 692.792 15.7256 693.553 15.7256C706.879 15.7256 720.205 15.7256 733.53 15.7256H745.204H747.422V39.4369H715.401C715.236 42.1376 715.341 44.6945 715.325 47.2437C715.306 49.8938 715.325 52.5439 715.325 55.2038V86.6558C713.897 86.683 712.613 86.7179 711.33 86.7296C710.08 86.7432 708.832 86.7296 707.33 86.7296C707.099 82.07 707.257 77.5037 707.227 72.945C707.198 68.3573 707.227 63.7676 707.215 59.178C707.204 54.5883 707.215 50.0006 707.215 45.4128V31.5021H739.247C739.59 28.8403 739.265 26.3649 739.297 23.7595Z" fill="white" fill-opacity="0.1"/>
<path d="M723.663 49.5762L761.065 86.311L760.913 86.7226H758.648C756.144 86.7226 753.641 86.6915 751.139 86.7323C750.148 86.7498 749.386 86.5071 748.67 85.8004C740.537 77.7976 732.399 69.8006 724.257 61.8095C723.796 61.3552 723.388 60.6155 723.372 59.9981C723.285 56.7733 723.328 53.5465 723.342 50.3198C723.334 50.1567 723.465 49.9955 723.663 49.5762Z" fill="white" fill-opacity="0.1"/>
<path d="M723.348 71.5883L738.799 86.5883C738.406 86.6576 738.01 86.703 737.611 86.7242C734.774 86.7242 731.937 86.6717 729.103 86.7416C728.005 86.7688 727.32 86.297 726.492 85.6777C723.929 83.7362 722.821 81.3715 723.243 78.1506C723.526 75.9897 723.326 73.7667 723.348 71.5728C723.366 71.5243 723.433 71.4757 723.348 71.5883Z" fill="white" fill-opacity="0.1"/>
<path d="M771.906 0H859.893V54.9693C857.863 55.2954 855.902 55.0838 853.95 55.1246C852.061 55.1615 850.169 55.1246 847.823 55.1246C848.447 55.8682 848.758 56.3167 849.147 56.6778C852.35 59.757 855.539 62.8478 858.798 65.8688C859.215 66.224 859.542 66.6693 859.754 67.1696C859.965 67.67 860.055 68.2116 860.016 68.7519C859.935 71.8582 859.99 74.9491 859.99 78.005C859.905 78.0524 859.817 78.0946 859.727 78.1312C859.669 78.1467 859.584 78.1642 859.549 78.1312C859.233 77.9048 858.931 77.6597 858.645 77.3973C848.509 67.4433 838.37 57.468 828.101 47.3586C829.74 46.9276 831.291 47.1936 832.814 47.147C834.399 47.0985 835.983 47.1315 837.568 47.1315H851.538C851.977 45.5977 852.102 10.783 851.68 8.02028C827.81 7.96397 803.894 8.04163 779.688 7.99504C779.587 10.7131 779.646 13.3438 779.638 15.9551C779.628 18.5392 779.638 21.1253 779.638 23.7211C779.638 26.3705 779.638 29.0239 779.638 31.6812V39.4471C779.638 42.0979 779.638 44.7512 779.638 47.4072V86.6232H771.992C771.936 86.565 771.889 86.5223 771.849 86.4737C771.809 86.4252 771.748 86.3728 771.738 86.3145C771.667 86.0009 771.622 85.6821 771.603 85.3613C771.586 57.3068 771.578 29.2524 771.578 1.1979C771.585 0.940134 771.62 0.683812 771.681 0.432951C771.739 0.280767 771.815 0.13553 771.906 0Z" fill="white" fill-opacity="0.1"/>
<path d="M835.744 23.7595H795.826V86.6209H787.972C787.546 85.1162 787.36 20.1871 787.774 15.8188C788.485 15.7858 789.24 15.7256 790 15.7256C803.327 15.7256 816.652 15.7256 829.977 15.7256H841.651H843.87V39.4369H811.848C811.683 42.1376 811.788 44.6945 811.773 47.2437C811.753 49.8938 811.773 52.5439 811.773 55.2038V86.6558C810.344 86.683 809.061 86.7179 807.777 86.7296C806.527 86.7432 805.279 86.7296 803.778 86.7296C803.546 82.07 803.704 77.5037 803.675 72.945C803.645 68.3573 803.675 63.7676 803.663 59.178C803.651 54.5883 803.663 50.0006 803.663 45.4128V31.5021H835.694C836.037 28.8403 835.712 26.3649 835.744 23.7595Z" fill="white" fill-opacity="0.1"/>
<path d="M820.11 49.5762L857.512 86.311L857.36 86.7226H855.095C852.592 86.7226 850.088 86.6915 847.586 86.7323C846.595 86.7498 845.833 86.5071 845.118 85.8004C836.984 77.7976 828.846 69.8006 820.705 61.8095C820.243 61.3552 819.835 60.6155 819.819 59.9981C819.732 56.7733 819.776 53.5465 819.789 50.3198C819.782 50.1567 819.912 49.9955 820.11 49.5762Z" fill="white" fill-opacity="0.1"/>
<path d="M819.795 71.5883L835.247 86.5883C834.854 86.6576 834.457 86.703 834.058 86.7242C831.221 86.7242 828.385 86.6717 825.55 86.7416C824.453 86.7688 823.767 86.297 822.939 85.6777C820.376 83.7362 819.268 81.3715 819.69 78.1506C819.974 75.9897 819.774 73.7667 819.795 71.5728C819.813 71.5243 819.881 71.4757 819.795 71.5883Z" fill="white" fill-opacity="0.1"/>
<path d="M868.354 0H956.34V54.9693C954.31 55.2954 952.349 55.0838 950.398 55.1246C948.508 55.1615 946.616 55.1246 944.271 55.1246C944.895 55.8682 945.206 56.3167 945.594 56.6778C948.797 59.757 951.986 62.8478 955.245 65.8688C955.662 66.224 955.989 66.6693 956.201 67.1696C956.412 67.67 956.502 68.2116 956.463 68.7519C956.382 71.8582 956.438 74.9491 956.438 78.005C956.352 78.0524 956.264 78.0946 956.174 78.1312C956.117 78.1467 956.031 78.1642 955.996 78.1312C955.68 77.9048 955.378 77.6597 955.092 77.3973C944.956 67.4433 934.818 57.468 924.549 47.3586C926.187 46.9276 927.738 47.1936 929.261 47.147C930.846 47.0985 932.431 47.1315 934.015 47.1315H947.985C948.425 45.5977 948.549 10.783 948.128 8.02028C924.257 7.96397 900.342 8.04163 876.135 7.99504C876.034 10.7131 876.093 13.3438 876.085 15.9551C876.075 18.5392 876.085 21.1253 876.085 23.7211C876.085 26.3705 876.085 29.0239 876.085 31.6812V39.4471C876.085 42.0979 876.085 44.7512 876.085 47.4072V86.6232H868.439C868.383 86.565 868.336 86.5223 868.296 86.4737C868.257 86.4252 868.195 86.3728 868.185 86.3145C868.114 86.0009 868.069 85.6821 868.051 85.3613C868.033 57.3068 868.025 29.2524 868.025 1.1979C868.032 0.940134 868.067 0.683812 868.128 0.432951C868.186 0.280767 868.262 0.13553 868.354 0Z" fill="white" fill-opacity="0.1"/>
<path d="M932.191 23.7595H892.273V86.6209H884.419C883.993 85.1162 883.807 20.1871 884.221 15.8188C884.932 15.7858 885.687 15.7256 886.447 15.7256C899.774 15.7256 913.099 15.7256 926.424 15.7256H938.098H940.317V39.4369H908.295C908.131 42.1376 908.236 44.6945 908.22 47.2437C908.2 49.8938 908.22 52.5439 908.22 55.2038V86.6558C906.792 86.683 905.508 86.7179 904.224 86.7296C902.974 86.7432 901.726 86.7296 900.225 86.7296C899.993 82.07 900.151 77.5037 900.122 72.945C900.092 68.3573 900.122 63.7676 900.11 59.178C900.098 54.5883 900.11 50.0006 900.11 45.4128V31.5021H932.141C932.484 28.8403 932.159 26.3649 932.191 23.7595Z" fill="white" fill-opacity="0.1"/>
<path d="M916.558 49.5762L953.959 86.311L953.807 86.7226H951.543C949.039 86.7226 946.535 86.6915 944.033 86.7323C943.043 86.7498 942.28 86.5071 941.565 85.8004C933.431 77.7976 925.293 69.8006 917.152 61.8095C916.69 61.3552 916.282 60.6155 916.266 59.9981C916.179 56.7733 916.223 53.5465 916.237 50.3198C916.229 50.1567 916.36 49.9955 916.558 49.5762Z" fill="white" fill-opacity="0.1"/>
<path d="M916.243 71.5883L931.694 86.5883C931.301 86.6576 930.904 86.703 930.505 86.7242C927.669 86.7242 924.832 86.6717 921.997 86.7416C920.9 86.7688 920.214 86.297 919.386 85.6777C916.823 83.7362 915.716 81.3715 916.138 78.1506C916.421 75.9897 916.221 73.7667 916.243 71.5728C916.26 71.5243 916.328 71.4757 916.243 71.5883Z" fill="white" fill-opacity="0.1"/>
<path d="M964.801 0H1052.79V54.9693C1050.76 55.2954 1048.8 55.0838 1046.84 55.1246C1044.96 55.1615 1043.06 55.1246 1040.72 55.1246C1041.34 55.8682 1041.65 56.3167 1042.04 56.6778C1045.24 59.757 1048.43 62.8478 1051.69 65.8688C1052.11 66.224 1052.44 66.6693 1052.65 67.1696C1052.86 67.67 1052.95 68.2116 1052.91 68.7519C1052.83 71.8582 1052.88 74.9491 1052.88 78.005C1052.8 78.0524 1052.71 78.0946 1052.62 78.1312C1052.56 78.1467 1052.48 78.1642 1052.44 78.1312C1052.13 77.9048 1051.83 77.6597 1051.54 77.3973C1041.4 67.4433 1031.26 57.468 1021 47.3586C1022.63 46.9276 1024.19 47.1936 1025.71 47.147C1027.29 47.0985 1028.88 47.1315 1030.46 47.1315H1044.43C1044.87 45.5977 1045 10.783 1044.57 8.02028C1020.7 7.96397 996.789 8.04163 972.582 7.99504C972.481 10.7131 972.54 13.3438 972.532 15.9551C972.523 18.5392 972.532 21.1253 972.532 23.7211C972.532 26.3705 972.532 29.0239 972.532 31.6812V39.4471C972.532 42.0979 972.532 44.7512 972.532 47.4072V86.6232H964.886C964.831 86.565 964.783 86.5223 964.743 86.4737C964.704 86.4252 964.642 86.3728 964.633 86.3145C964.561 86.0009 964.516 85.6821 964.498 85.3613C964.481 57.3068 964.472 29.2524 964.472 1.1979C964.48 0.940134 964.514 0.683812 964.575 0.432951C964.633 0.280767 964.709 0.13553 964.801 0Z" fill="white" fill-opacity="0.1"/>
<path d="M1028.64 23.7595H988.721V86.6209H980.866C980.44 85.1162 980.254 20.1871 980.668 15.8188C981.379 15.7858 982.134 15.7256 982.895 15.7256C996.221 15.7256 1009.55 15.7256 1022.87 15.7256H1034.55H1036.76V39.4369H1004.74C1004.58 42.1376 1004.68 44.6945 1004.67 47.2437C1004.65 49.8938 1004.67 52.5439 1004.67 55.2038V86.6558C1003.24 86.683 1001.96 86.7179 1000.67 86.7296C999.421 86.7432 998.174 86.7296 996.672 86.7296C996.44 82.07 996.599 77.5037 996.569 72.945C996.539 68.3573 996.569 63.7676 996.557 59.178C996.545 54.5883 996.557 50.0006 996.557 45.4128V31.5021H1028.59C1028.93 28.8403 1028.61 26.3649 1028.64 23.7595Z" fill="white" fill-opacity="0.1"/>
<path d="M1013 49.5762L1050.41 86.311L1050.25 86.7226H1047.99C1045.49 86.7226 1042.98 86.6915 1040.48 86.7323C1039.49 86.7498 1038.73 86.5071 1038.01 85.8004C1029.88 77.7976 1021.74 69.8006 1013.6 61.8095C1013.14 61.3552 1012.73 60.6155 1012.71 59.9981C1012.63 56.7733 1012.67 53.5465 1012.68 50.3198C1012.68 50.1567 1012.81 49.9955 1013 49.5762Z" fill="white" fill-opacity="0.1"/>
<path d="M1012.69 71.5883L1028.14 86.5883C1027.75 86.6576 1027.35 86.703 1026.95 86.7242C1024.12 86.7242 1021.28 86.6717 1018.44 86.7416C1017.35 86.7688 1016.66 86.297 1015.83 85.6777C1013.27 83.7362 1012.16 81.3715 1012.58 78.1506C1012.87 75.9897 1012.67 73.7667 1012.69 71.5728C1012.71 71.5243 1012.77 71.4757 1012.69 71.5883Z" fill="white" fill-opacity="0.1"/>
<path d="M1061.25 0H1149.23V54.9693C1147.2 55.2954 1145.24 55.0838 1143.29 55.1246C1141.4 55.1615 1139.51 55.1246 1137.17 55.1246C1137.79 55.8682 1138.1 56.3167 1138.49 56.6778C1141.69 59.757 1144.88 62.8478 1148.14 65.8688C1148.56 66.224 1148.88 66.6693 1149.1 67.1696C1149.31 67.67 1149.4 68.2116 1149.36 68.7519C1149.28 71.8582 1149.33 74.9491 1149.33 78.005C1149.25 78.0524 1149.16 78.0946 1149.07 78.1312C1149.01 78.1467 1148.93 78.1642 1148.89 78.1312C1148.57 77.9048 1148.27 77.6597 1147.99 77.3973C1137.85 67.4433 1127.71 57.468 1117.44 47.3586C1119.08 46.9276 1120.63 47.1936 1122.16 47.147C1123.74 47.0985 1125.33 47.1315 1126.91 47.1315H1140.88C1141.32 45.5977 1141.44 10.783 1141.02 8.02028C1117.15 7.96397 1093.24 8.04163 1069.03 7.99504C1068.93 10.7131 1068.99 13.3438 1068.98 15.9551C1068.97 18.5392 1068.98 21.1253 1068.98 23.7211C1068.98 26.3705 1068.98 29.0239 1068.98 31.6812V39.4471C1068.98 42.0979 1068.98 44.7512 1068.98 47.4072V86.6232H1061.33C1061.28 86.565 1061.23 86.5223 1061.19 86.4737C1061.15 86.4252 1061.09 86.3728 1061.08 86.3145C1061.01 86.0009 1060.96 85.6821 1060.94 85.3613C1060.93 57.3068 1060.92 29.2524 1060.92 1.1979C1060.93 0.940134 1060.96 0.683812 1061.02 0.432951C1061.08 0.280767 1061.16 0.13553 1061.25 0Z" fill="white" fill-opacity="0.1"/>
<path d="M1125.09 23.7595H1085.17V86.6209H1077.31C1076.89 85.1162 1076.7 20.1871 1077.12 15.8188C1077.83 15.7858 1078.58 15.7256 1079.34 15.7256C1092.67 15.7256 1105.99 15.7256 1119.32 15.7256H1130.99H1133.21V39.4369H1101.19C1101.02 42.1376 1101.13 44.6945 1101.11 47.2437C1101.09 49.8938 1101.11 52.5439 1101.11 55.2038V86.6558C1099.69 86.683 1098.4 86.7179 1097.12 86.7296C1095.87 86.7432 1094.62 86.7296 1093.12 86.7296C1092.89 82.07 1093.05 77.5037 1093.02 72.945C1092.99 68.3573 1093.02 63.7676 1093 59.178C1092.99 54.5883 1093 50.0006 1093 45.4128V31.5021H1125.04C1125.38 28.8403 1125.05 26.3649 1125.09 23.7595Z" fill="white" fill-opacity="0.1"/>
<path d="M1109.45 49.5762L1146.85 86.311L1146.7 86.7226H1144.44C1141.93 86.7226 1139.43 86.6915 1136.93 86.7323C1135.94 86.7498 1135.17 86.5071 1134.46 85.8004C1126.33 77.7976 1118.19 69.8006 1110.05 61.8095C1109.58 61.3552 1109.18 60.6155 1109.16 59.9981C1109.07 56.7733 1109.12 53.5465 1109.13 50.3198C1109.12 50.1567 1109.25 49.9955 1109.45 49.5762Z" fill="white" fill-opacity="0.1"/>
<path d="M1109.14 71.5883L1124.59 86.5883C1124.2 86.6576 1123.8 86.703 1123.4 86.7242C1120.56 86.7242 1117.73 86.6717 1114.89 86.7416C1113.79 86.7688 1113.11 86.297 1112.28 85.6777C1109.72 83.7362 1108.61 81.3715 1109.03 78.1506C1109.32 75.9897 1109.12 73.7667 1109.14 71.5728C1109.15 71.5243 1109.22 71.4757 1109.14 71.5883Z" fill="white" fill-opacity="0.1"/>
<path d="M1157.7 0H1245.68V54.9693C1243.65 55.2954 1241.69 55.0838 1239.74 55.1246C1237.85 55.1615 1235.96 55.1246 1233.61 55.1246C1234.24 55.8682 1234.55 56.3167 1234.94 56.6778C1238.14 59.757 1241.33 62.8478 1244.59 65.8688C1245 66.224 1245.33 66.6693 1245.54 67.1696C1245.75 67.67 1245.84 68.2116 1245.8 68.7519C1245.72 71.8582 1245.78 74.9491 1245.78 78.005C1245.69 78.0524 1245.61 78.0946 1245.52 78.1312C1245.46 78.1467 1245.37 78.1642 1245.34 78.1312C1245.02 77.9048 1244.72 77.6597 1244.43 77.3973C1234.3 67.4433 1224.16 57.468 1213.89 47.3586C1215.53 46.9276 1217.08 47.1936 1218.6 47.147C1220.19 47.0985 1221.77 47.1315 1223.36 47.1315H1237.33C1237.77 45.5977 1237.89 10.783 1237.47 8.02028C1213.6 7.96397 1189.68 8.04163 1165.48 7.99504C1165.38 10.7131 1165.43 13.3438 1165.43 15.9551C1165.42 18.5392 1165.43 21.1253 1165.43 23.7211C1165.43 26.3705 1165.43 29.0239 1165.43 31.6812V39.4471C1165.43 42.0979 1165.43 44.7512 1165.43 47.4072V86.6232H1157.78C1157.73 86.565 1157.68 86.5223 1157.64 86.4737C1157.6 86.4252 1157.54 86.3728 1157.53 86.3145C1157.46 86.0009 1157.41 85.6821 1157.39 85.3613C1157.38 57.3068 1157.37 29.2524 1157.37 1.1979C1157.37 0.940134 1157.41 0.683812 1157.47 0.432951C1157.53 0.280767 1157.6 0.13553 1157.7 0Z" fill="white" fill-opacity="0.1"/>
<path d="M1221.53 23.7595H1181.61V86.6209H1173.76C1173.33 85.1162 1173.15 20.1871 1173.56 15.8188C1174.27 15.7858 1175.03 15.7256 1175.79 15.7256C1189.12 15.7256 1202.44 15.7256 1215.77 15.7256H1227.44H1229.66V39.4369H1197.64C1197.47 42.1376 1197.58 44.6945 1197.56 47.2437C1197.54 49.8938 1197.56 52.5439 1197.56 55.2038V86.6558C1196.13 86.683 1194.85 86.7179 1193.57 86.7296C1192.32 86.7432 1191.07 86.7296 1189.57 86.7296C1189.33 82.07 1189.49 77.5037 1189.46 72.945C1189.43 68.3573 1189.46 63.7676 1189.45 59.178C1189.44 54.5883 1189.45 50.0006 1189.45 45.4128V31.5021H1221.48C1221.83 28.8403 1221.5 26.3649 1221.53 23.7595Z" fill="white" fill-opacity="0.1"/>
<path d="M1205.9 49.5762L1243.3 86.311L1243.15 86.7226H1240.88C1238.38 86.7226 1235.88 86.6915 1233.37 86.7323C1232.38 86.7498 1231.62 86.5071 1230.91 85.8004C1222.77 77.7976 1214.64 69.8006 1206.49 61.8095C1206.03 61.3552 1205.62 60.6155 1205.61 59.9981C1205.52 56.7733 1205.56 53.5465 1205.58 50.3198C1205.57 50.1567 1205.7 49.9955 1205.9 49.5762Z" fill="white" fill-opacity="0.1"/>
<path d="M1205.58 71.5883L1221.04 86.5883C1220.64 86.6576 1220.25 86.703 1219.85 86.7242C1217.01 86.7242 1214.17 86.6717 1211.34 86.7416C1210.24 86.7688 1209.56 86.297 1208.73 85.6777C1206.16 83.7362 1205.06 81.3715 1205.48 78.1506C1205.76 75.9897 1205.56 73.7667 1205.58 71.5728C1205.6 71.5243 1205.67 71.4757 1205.58 71.5883Z" fill="white" fill-opacity="0.1"/>
<path d="M1254.14 0H1342.13V54.9693C1340.1 55.2954 1338.14 55.0838 1336.19 55.1246C1334.3 55.1615 1332.4 55.1246 1330.06 55.1246C1330.68 55.8682 1330.99 56.3167 1331.38 56.6778C1334.59 59.757 1337.78 62.8478 1341.03 65.8688C1341.45 66.224 1341.78 66.6693 1341.99 67.1696C1342.2 67.67 1342.29 68.2116 1342.25 68.7519C1342.17 71.8582 1342.23 74.9491 1342.23 78.005C1342.14 78.0524 1342.05 78.0946 1341.96 78.1312C1341.91 78.1467 1341.82 78.1642 1341.78 78.1312C1341.47 77.9048 1341.17 77.6597 1340.88 77.3973C1330.74 67.4433 1320.61 57.468 1310.34 47.3586C1311.98 46.9276 1313.53 47.1936 1315.05 47.147C1316.63 47.0985 1318.22 47.1315 1319.8 47.1315H1333.77C1334.21 45.5977 1334.34 10.783 1333.92 8.02028C1310.05 7.96397 1286.13 8.04163 1261.92 7.99504C1261.82 10.7131 1261.88 13.3438 1261.87 15.9551C1261.86 18.5392 1261.87 21.1253 1261.87 23.7211C1261.87 26.3705 1261.87 29.0239 1261.87 31.6812V39.4471C1261.87 42.0979 1261.87 44.7512 1261.87 47.4072V86.6232H1254.23C1254.17 86.565 1254.12 86.5223 1254.09 86.4737C1254.05 86.4252 1253.98 86.3728 1253.97 86.3145C1253.9 86.0009 1253.86 85.6821 1253.84 85.3613C1253.82 57.3068 1253.81 29.2524 1253.81 1.1979C1253.82 0.940134 1253.86 0.683812 1253.92 0.432951C1253.98 0.280767 1254.05 0.13553 1254.14 0Z" fill="white" fill-opacity="0.1"/>
<path d="M1317.98 23.7595H1278.06V86.6209H1270.21C1269.78 85.1162 1269.6 20.1871 1270.01 15.8188C1270.72 15.7858 1271.48 15.7256 1272.24 15.7256C1285.56 15.7256 1298.89 15.7256 1312.21 15.7256H1323.89H1326.11V39.4369H1294.08C1293.92 42.1376 1294.02 44.6945 1294.01 47.2437C1293.99 49.8938 1294.01 52.5439 1294.01 55.2038V86.6558C1292.58 86.683 1291.3 86.7179 1290.01 86.7296C1288.76 86.7432 1287.52 86.7296 1286.01 86.7296C1285.78 82.07 1285.94 77.5037 1285.91 72.945C1285.88 68.3573 1285.91 63.7676 1285.9 59.178C1285.89 54.5883 1285.9 50.0006 1285.9 45.4128V31.5021H1317.93C1318.27 28.8403 1317.95 26.3649 1317.98 23.7595Z" fill="white" fill-opacity="0.1"/>
<path d="M1302.35 49.5762L1339.75 86.311L1339.6 86.7226H1337.33C1334.83 86.7226 1332.32 86.6915 1329.82 86.7323C1328.83 86.7498 1328.07 86.5071 1327.35 85.8004C1319.22 77.7976 1311.08 69.8006 1302.94 61.8095C1302.48 61.3552 1302.07 60.6155 1302.06 59.9981C1301.97 56.7733 1302.01 53.5465 1302.03 50.3198C1302.02 50.1567 1302.15 49.9955 1302.35 49.5762Z" fill="white" fill-opacity="0.1"/>
<path d="M1302.03 71.5883L1317.48 86.5883C1317.09 86.6576 1316.69 86.703 1316.29 86.7242C1313.46 86.7242 1310.62 86.6717 1307.79 86.7416C1306.69 86.7688 1306 86.297 1305.18 85.6777C1302.61 83.7362 1301.5 81.3715 1301.93 78.1506C1302.21 75.9897 1302.01 73.7667 1302.03 71.5728C1302.05 71.5243 1302.12 71.4757 1302.03 71.5883Z" fill="white" fill-opacity="0.1"/>
<path d="M1350.59 0H1438.58V54.9693C1436.55 55.2954 1434.58 55.0838 1432.63 55.1246C1430.74 55.1615 1428.85 55.1246 1426.51 55.1246C1427.13 55.8682 1427.44 56.3167 1427.83 56.6778C1431.03 59.757 1434.22 62.8478 1437.48 65.8688C1437.9 66.224 1438.23 66.6693 1438.44 67.1696C1438.65 67.67 1438.74 68.2116 1438.7 68.7519C1438.62 71.8582 1438.67 74.9491 1438.67 78.005C1438.59 78.0524 1438.5 78.0946 1438.41 78.1312C1438.35 78.1467 1438.27 78.1642 1438.23 78.1312C1437.92 77.9048 1437.61 77.6597 1437.33 77.3973C1427.19 67.4433 1417.05 57.468 1406.78 47.3586C1408.42 46.9276 1409.97 47.1936 1411.5 47.147C1413.08 47.0985 1414.67 47.1315 1416.25 47.1315H1430.22C1430.66 45.5977 1430.79 10.783 1430.36 8.02028C1406.49 7.96397 1382.58 8.04163 1358.37 7.99504C1358.27 10.7131 1358.33 13.3438 1358.32 15.9551C1358.31 18.5392 1358.32 21.1253 1358.32 23.7211C1358.32 26.3705 1358.32 29.0239 1358.32 31.6812V39.4471C1358.32 42.0979 1358.32 44.7512 1358.32 47.4072V86.6232H1350.67C1350.62 86.565 1350.57 86.5223 1350.53 86.4737C1350.49 86.4252 1350.43 86.3728 1350.42 86.3145C1350.35 86.0009 1350.31 85.6821 1350.29 85.3613C1350.27 57.3068 1350.26 29.2524 1350.26 1.1979C1350.27 0.940134 1350.3 0.683812 1350.36 0.432951C1350.42 0.280767 1350.5 0.13553 1350.59 0Z" fill="white" fill-opacity="0.1"/>
<path d="M1414.43 23.7595H1374.51V86.6209H1366.65C1366.23 85.1162 1366.04 20.1871 1366.46 15.8188C1367.17 15.7858 1367.92 15.7256 1368.68 15.7256C1382.01 15.7256 1395.34 15.7256 1408.66 15.7256H1420.33H1422.55V39.4369H1390.53C1390.37 42.1376 1390.47 44.6945 1390.46 47.2437C1390.44 49.8938 1390.46 52.5439 1390.46 55.2038V86.6558C1389.03 86.683 1387.74 86.7179 1386.46 86.7296C1385.21 86.7432 1383.96 86.7296 1382.46 86.7296C1382.23 82.07 1382.39 77.5037 1382.36 72.945C1382.33 68.3573 1382.36 63.7676 1382.35 59.178C1382.33 54.5883 1382.35 50.0006 1382.35 45.4128V31.5021H1414.38C1414.72 28.8403 1414.4 26.3649 1414.43 23.7595Z" fill="white" fill-opacity="0.1"/>
<path d="M1398.79 49.5762L1436.2 86.311L1436.04 86.7226H1433.78C1431.27 86.7226 1428.77 86.6915 1426.27 86.7323C1425.28 86.7498 1424.52 86.5071 1423.8 85.8004C1415.67 77.7976 1407.53 69.8006 1399.39 61.8095C1398.93 61.3552 1398.52 60.6155 1398.5 59.9981C1398.42 56.7733 1398.46 53.5465 1398.47 50.3198C1398.46 50.1567 1398.6 49.9955 1398.79 49.5762Z" fill="white" fill-opacity="0.1"/>
<path d="M1398.48 71.5883L1413.93 86.5883C1413.54 86.6576 1413.14 86.703 1412.74 86.7242C1409.9 86.7242 1407.07 86.6717 1404.23 86.7416C1403.14 86.7688 1402.45 86.297 1401.62 85.6777C1399.06 83.7362 1397.95 81.3715 1398.37 78.1506C1398.66 75.9897 1398.46 73.7667 1398.48 71.5728C1398.5 71.5243 1398.56 71.4757 1398.48 71.5883Z" fill="white" fill-opacity="0.1"/>
<path d="M1447.04 0H1535.02V54.9693C1532.99 55.2954 1531.03 55.0838 1529.08 55.1246C1527.19 55.1615 1525.3 55.1246 1522.95 55.1246C1523.58 55.8682 1523.89 56.3167 1524.28 56.6778C1527.48 59.757 1530.67 62.8478 1533.93 65.8688C1534.35 66.224 1534.67 66.6693 1534.88 67.1696C1535.1 67.67 1535.19 68.2116 1535.15 68.7519C1535.07 71.8582 1535.12 74.9491 1535.12 78.005C1535.04 78.0524 1534.95 78.0946 1534.86 78.1312C1534.8 78.1467 1534.71 78.1642 1534.68 78.1312C1534.36 77.9048 1534.06 77.6597 1533.78 77.3973C1523.64 67.4433 1513.5 57.468 1503.23 47.3586C1504.87 46.9276 1506.42 47.1936 1507.94 47.147C1509.53 47.0985 1511.11 47.1315 1512.7 47.1315H1526.67C1527.11 45.5977 1527.23 10.783 1526.81 8.02028C1502.94 7.96397 1479.02 8.04163 1454.82 7.99504C1454.72 10.7131 1454.78 13.3438 1454.77 15.9551C1454.76 18.5392 1454.77 21.1253 1454.77 23.7211C1454.77 26.3705 1454.77 29.0239 1454.77 31.6812V39.4471C1454.77 42.0979 1454.77 44.7512 1454.77 47.4072V86.6232H1447.12C1447.07 86.565 1447.02 86.5223 1446.98 86.4737C1446.94 86.4252 1446.88 86.3728 1446.87 86.3145C1446.8 86.0009 1446.75 85.6821 1446.73 85.3613C1446.72 57.3068 1446.71 29.2524 1446.71 1.1979C1446.72 0.940134 1446.75 0.683812 1446.81 0.432951C1446.87 0.280767 1446.95 0.13553 1447.04 0Z" fill="white" fill-opacity="0.1"/>
<path d="M1510.87 23.7595H1470.96V86.6209H1463.1C1462.68 85.1162 1462.49 20.1871 1462.9 15.8188C1463.62 15.7858 1464.37 15.7256 1465.13 15.7256C1478.46 15.7256 1491.78 15.7256 1505.11 15.7256H1516.78H1519V39.4369H1486.98C1486.81 42.1376 1486.92 44.6945 1486.9 47.2437C1486.88 49.8938 1486.9 52.5439 1486.9 55.2038V86.6558C1485.47 86.683 1484.19 86.7179 1482.91 86.7296C1481.66 86.7432 1480.41 86.7296 1478.91 86.7296C1478.68 82.07 1478.83 77.5037 1478.8 72.945C1478.78 68.3573 1478.8 63.7676 1478.79 59.178C1478.78 54.5883 1478.79 50.0006 1478.79 45.4128V31.5021H1510.82C1511.17 28.8403 1510.84 26.3649 1510.87 23.7595Z" fill="white" fill-opacity="0.1"/>
<path d="M1495.24 49.5762L1532.64 86.311L1532.49 86.7226H1530.23C1527.72 86.7226 1525.22 86.6915 1522.72 86.7323C1521.73 86.7498 1520.96 86.5071 1520.25 85.8004C1512.11 77.7976 1503.98 69.8006 1495.84 61.8095C1495.37 61.3552 1494.97 60.6155 1494.95 59.9981C1494.86 56.7733 1494.91 53.5465 1494.92 50.3198C1494.91 50.1567 1495.04 49.9955 1495.24 49.5762Z" fill="white" fill-opacity="0.1"/>
<path d="M1494.93 71.5883L1510.38 86.5883C1509.98 86.6576 1509.59 86.703 1509.19 86.7242C1506.35 86.7242 1503.52 86.6717 1500.68 86.7416C1499.58 86.7688 1498.9 86.297 1498.07 85.6777C1495.51 83.7362 1494.4 81.3715 1494.82 78.1506C1495.1 75.9897 1494.9 73.7667 1494.93 71.5728C1494.94 71.5243 1495.01 71.4757 1494.93 71.5883Z" fill="white" fill-opacity="0.1"/>
<path d="M1543.48 0H1631.47V54.9693C1629.44 55.2954 1627.48 55.0838 1625.53 55.1246C1623.64 55.1615 1621.75 55.1246 1619.4 55.1246C1620.03 55.8682 1620.34 56.3167 1620.72 56.6778C1623.93 59.757 1627.12 62.8478 1630.38 65.8688C1630.79 66.224 1631.12 66.6693 1631.33 67.1696C1631.54 67.67 1631.63 68.2116 1631.59 68.7519C1631.51 71.8582 1631.57 74.9491 1631.57 78.005C1631.48 78.0524 1631.39 78.0946 1631.3 78.1312C1631.25 78.1467 1631.16 78.1642 1631.13 78.1312C1630.81 77.9048 1630.51 77.6597 1630.22 77.3973C1620.09 67.4433 1609.95 57.468 1599.68 47.3586C1601.32 46.9276 1602.87 47.1936 1604.39 47.147C1605.98 47.0985 1607.56 47.1315 1609.15 47.1315H1623.12C1623.56 45.5977 1623.68 10.783 1623.26 8.02028C1599.39 7.96397 1575.47 8.04163 1551.27 7.99504C1551.16 10.7131 1551.22 13.3438 1551.22 15.9551C1551.21 18.5392 1551.22 21.1253 1551.22 23.7211C1551.22 26.3705 1551.22 29.0239 1551.22 31.6812V39.4471C1551.22 42.0979 1551.22 44.7512 1551.22 47.4072V86.6232H1543.57C1543.51 86.565 1543.47 86.5223 1543.43 86.4737C1543.39 86.4252 1543.33 86.3728 1543.32 86.3145C1543.24 86.0009 1543.2 85.6821 1543.18 85.3613C1543.16 57.3068 1543.16 29.2524 1543.16 1.1979C1543.16 0.940134 1543.2 0.683812 1543.26 0.432951C1543.32 0.280767 1543.39 0.13553 1543.48 0Z" fill="white" fill-opacity="0.1"/>
<path d="M1607.32 23.7595H1567.4V86.6209H1559.55C1559.12 85.1162 1558.94 20.1871 1559.35 15.8188C1560.06 15.7858 1560.82 15.7256 1561.58 15.7256C1574.9 15.7256 1588.23 15.7256 1601.55 15.7256H1613.23H1615.45V39.4369H1583.43C1583.26 42.1376 1583.37 44.6945 1583.35 47.2437C1583.33 49.8938 1583.35 52.5439 1583.35 55.2038V86.6558C1581.92 86.683 1580.64 86.7179 1579.35 86.7296C1578.1 86.7432 1576.86 86.7296 1575.36 86.7296C1575.12 82.07 1575.28 77.5037 1575.25 72.945C1575.22 68.3573 1575.25 63.7676 1575.24 59.178C1575.23 54.5883 1575.24 50.0006 1575.24 45.4128V31.5021H1607.27C1607.61 28.8403 1607.29 26.3649 1607.32 23.7595Z" fill="white" fill-opacity="0.1"/>
<path d="M1591.69 49.5762L1629.09 86.311L1628.94 86.7226H1626.67C1624.17 86.7226 1621.67 86.6915 1619.16 86.7323C1618.17 86.7498 1617.41 86.5071 1616.7 85.8004C1608.56 77.7976 1600.42 69.8006 1592.28 61.8095C1591.82 61.3552 1591.41 60.6155 1591.4 59.9981C1591.31 56.7733 1591.35 53.5465 1591.37 50.3198C1591.36 50.1567 1591.49 49.9955 1591.69 49.5762Z" fill="white" fill-opacity="0.1"/>
<path d="M1591.37 71.5883L1606.82 86.5883C1606.43 86.6576 1606.03 86.703 1605.64 86.7242C1602.8 86.7242 1599.96 86.6717 1597.13 86.7416C1596.03 86.7688 1595.34 86.297 1594.52 85.6777C1591.95 83.7362 1590.85 81.3715 1591.27 78.1506C1591.55 75.9897 1591.35 73.7667 1591.37 71.5728C1591.39 71.5243 1591.46 71.4757 1591.37 71.5883Z" fill="white" fill-opacity="0.1"/>
<path d="M1639.93 0H1727.92V54.9693C1725.89 55.2954 1723.93 55.0838 1721.98 55.1246C1720.09 55.1615 1718.19 55.1246 1715.85 55.1246C1716.47 55.8682 1716.78 56.3167 1717.17 56.6778C1720.37 59.757 1723.56 62.8478 1726.82 65.8688C1727.24 66.224 1727.57 66.6693 1727.78 67.1696C1727.99 67.67 1728.08 68.2116 1728.04 68.7519C1727.96 71.8582 1728.02 74.9491 1728.02 78.005C1727.93 78.0524 1727.84 78.0946 1727.75 78.1312C1727.69 78.1467 1727.61 78.1642 1727.57 78.1312C1727.26 77.9048 1726.96 77.6597 1726.67 77.3973C1716.53 67.4433 1706.4 57.468 1696.13 47.3586C1697.76 46.9276 1699.32 47.1936 1700.84 47.147C1702.42 47.0985 1704.01 47.1315 1705.59 47.1315H1719.56C1720 45.5977 1720.13 10.783 1719.71 8.02028C1695.84 7.96397 1671.92 8.04163 1647.71 7.99504C1647.61 10.7131 1647.67 13.3438 1647.66 15.9551C1647.65 18.5392 1647.66 21.1253 1647.66 23.7211C1647.66 26.3705 1647.66 29.0239 1647.66 31.6812V39.4471C1647.66 42.0979 1647.66 44.7512 1647.66 47.4072V86.6232H1640.02C1639.96 86.565 1639.91 86.5223 1639.87 86.4737C1639.83 86.4252 1639.77 86.3728 1639.76 86.3145C1639.69 86.0009 1639.65 85.6821 1639.63 85.3613C1639.61 57.3068 1639.6 29.2524 1639.6 1.1979C1639.61 0.940134 1639.64 0.683812 1639.71 0.432951C1639.76 0.280767 1639.84 0.13553 1639.93 0Z" fill="white" fill-opacity="0.1"/>
<path d="M1703.77 23.7595H1663.85V86.6209H1656C1655.57 85.1162 1655.38 20.1871 1655.8 15.8188C1656.51 15.7858 1657.26 15.7256 1658.03 15.7256C1671.35 15.7256 1684.68 15.7256 1698 15.7256H1709.68H1711.89V39.4369H1679.87C1679.71 42.1376 1679.81 44.6945 1679.8 47.2437C1679.78 49.8938 1679.8 52.5439 1679.8 55.2038V86.6558C1678.37 86.683 1677.09 86.7179 1675.8 86.7296C1674.55 86.7432 1673.3 86.7296 1671.8 86.7296C1671.57 82.07 1671.73 77.5037 1671.7 72.945C1671.67 68.3573 1671.7 63.7676 1671.69 59.178C1671.68 54.5883 1671.69 50.0006 1671.69 45.4128V31.5021H1703.72C1704.06 28.8403 1703.74 26.3649 1703.77 23.7595Z" fill="white" fill-opacity="0.1"/>
<path d="M1688.14 49.5762L1725.54 86.311L1725.38 86.7226H1723.12C1720.62 86.7226 1718.11 86.6915 1715.61 86.7323C1714.62 86.7498 1713.86 86.5071 1713.14 85.8004C1705.01 77.7976 1696.87 69.8006 1688.73 61.8095C1688.27 61.3552 1687.86 60.6155 1687.84 59.9981C1687.76 56.7733 1687.8 53.5465 1687.81 50.3198C1687.81 50.1567 1687.94 49.9955 1688.14 49.5762Z" fill="white" fill-opacity="0.1"/>
<path d="M1687.82 71.5883L1703.27 86.5883C1702.88 86.6576 1702.48 86.703 1702.08 86.7242C1699.25 86.7242 1696.41 86.6717 1693.57 86.7416C1692.48 86.7688 1691.79 86.297 1690.96 85.6777C1688.4 83.7362 1687.29 81.3715 1687.72 78.1506C1688 75.9897 1687.8 73.7667 1687.82 71.5728C1687.84 71.5243 1687.91 71.4757 1687.82 71.5883Z" fill="white" fill-opacity="0.1"/>
<path d="M1736.38 0H1824.37V54.9693C1822.33 55.2954 1820.37 55.0838 1818.42 55.1246C1816.53 55.1615 1814.64 55.1246 1812.3 55.1246C1812.92 55.8682 1813.23 56.3167 1813.62 56.6778C1816.82 59.757 1820.01 62.8478 1823.27 65.8688C1823.69 66.224 1824.01 66.6693 1824.23 67.1696C1824.44 67.67 1824.53 68.2116 1824.49 68.7519C1824.41 71.8582 1824.46 74.9491 1824.46 78.005C1824.38 78.0524 1824.29 78.0946 1824.2 78.1312C1824.14 78.1467 1824.06 78.1642 1824.02 78.1312C1823.7 77.9048 1823.4 77.6597 1823.12 77.3973C1812.98 67.4433 1802.84 57.468 1792.57 47.3586C1794.21 46.9276 1795.76 47.1936 1797.29 47.147C1798.87 47.0985 1800.46 47.1315 1802.04 47.1315H1816.01C1816.45 45.5977 1816.57 10.783 1816.15 8.02028C1792.28 7.96397 1768.37 8.04163 1744.16 7.99504C1744.06 10.7131 1744.12 13.3438 1744.11 15.9551C1744.1 18.5392 1744.11 21.1253 1744.11 23.7211C1744.11 26.3705 1744.11 29.0239 1744.11 31.6812V39.4471C1744.11 42.0979 1744.11 44.7512 1744.11 47.4072V86.6232H1736.46C1736.41 86.565 1736.36 86.5223 1736.32 86.4737C1736.28 86.4252 1736.22 86.3728 1736.21 86.3145C1736.14 86.0009 1736.09 85.6821 1736.08 85.3613C1736.06 57.3068 1736.05 29.2524 1736.05 1.1979C1736.06 0.940134 1736.09 0.683812 1736.15 0.432951C1736.21 0.280767 1736.29 0.13553 1736.38 0Z" fill="white" fill-opacity="0.1"/>
<path d="M1800.22 23.7595H1760.3V86.6209H1752.44C1752.02 85.1162 1751.83 20.1871 1752.25 15.8188C1752.96 15.7858 1753.71 15.7256 1754.47 15.7256C1767.8 15.7256 1781.12 15.7256 1794.45 15.7256H1806.12H1808.34V39.4369H1776.32C1776.16 42.1376 1776.26 44.6945 1776.24 47.2437C1776.22 49.8938 1776.24 52.5439 1776.24 55.2038V86.6558C1774.82 86.683 1773.53 86.7179 1772.25 86.7296C1771 86.7432 1769.75 86.7296 1768.25 86.7296C1768.02 82.07 1768.18 77.5037 1768.15 72.945C1768.12 68.3573 1768.15 63.7676 1768.13 59.178C1768.12 54.5883 1768.13 50.0006 1768.13 45.4128V31.5021H1800.17C1800.51 28.8403 1800.18 26.3649 1800.22 23.7595Z" fill="white" fill-opacity="0.1"/>
<path d="M1784.58 49.5762L1821.98 86.311L1821.83 86.7226H1819.57C1817.06 86.7226 1814.56 86.6915 1812.06 86.7323C1811.07 86.7498 1810.3 86.5071 1809.59 85.8004C1801.46 77.7976 1793.32 69.8006 1785.18 61.8095C1784.72 61.3552 1784.31 60.6155 1784.29 59.9981C1784.2 56.7733 1784.25 53.5465 1784.26 50.3198C1784.25 50.1567 1784.38 49.9955 1784.58 49.5762Z" fill="white" fill-opacity="0.1"/>
<path d="M1784.27 71.5883L1799.72 86.5883C1799.33 86.6576 1798.93 86.703 1798.53 86.7242C1795.69 86.7242 1792.86 86.6717 1790.02 86.7416C1788.92 86.7688 1788.24 86.297 1787.41 85.6777C1784.85 83.7362 1783.74 81.3715 1784.16 78.1506C1784.45 75.9897 1784.25 73.7667 1784.27 71.5728C1784.29 71.5243 1784.35 71.4757 1784.27 71.5883Z" fill="white" fill-opacity="0.1"/>
<path d="M1832.83 0H1920.81V54.9693C1918.78 55.2954 1916.82 55.0838 1914.87 55.1246C1912.98 55.1615 1911.09 55.1246 1908.74 55.1246C1909.37 55.8682 1909.68 56.3167 1910.07 56.6778C1913.27 59.757 1916.46 62.8478 1919.72 65.8688C1920.13 66.224 1920.46 66.6693 1920.67 67.1696C1920.88 67.67 1920.97 68.2116 1920.94 68.7519C1920.85 71.8582 1920.91 74.9491 1920.91 78.005C1920.82 78.0524 1920.74 78.0946 1920.65 78.1312C1920.59 78.1467 1920.5 78.1642 1920.47 78.1312C1920.15 77.9048 1919.85 77.6597 1919.56 77.3973C1909.43 67.4433 1899.29 57.468 1889.02 47.3586C1890.66 46.9276 1892.21 47.1936 1893.73 47.147C1895.32 47.0985 1896.9 47.1315 1898.49 47.1315H1912.46C1912.9 45.5977 1913.02 10.783 1912.6 8.02028C1888.73 7.96397 1864.81 8.04163 1840.61 7.99504C1840.51 10.7131 1840.57 13.3438 1840.56 15.9551C1840.55 18.5392 1840.56 21.1253 1840.56 23.7211C1840.56 26.3705 1840.56 29.0239 1840.56 31.6812V39.4471C1840.56 42.0979 1840.56 44.7512 1840.56 47.4072V86.6232H1832.91C1832.86 86.565 1832.81 86.5223 1832.77 86.4737C1832.73 86.4252 1832.67 86.3728 1832.66 86.3145C1832.59 86.0009 1832.54 85.6821 1832.52 85.3613C1832.51 57.3068 1832.5 29.2524 1832.5 1.1979C1832.5 0.940134 1832.54 0.683812 1832.6 0.432951C1832.66 0.280767 1832.73 0.13553 1832.83 0Z" fill="white" fill-opacity="0.1"/>
<path d="M1896.66 23.7595H1856.75V86.6209H1848.89C1848.47 85.1162 1848.28 20.1871 1848.69 15.8188C1849.4 15.7858 1850.16 15.7256 1850.92 15.7256C1864.25 15.7256 1877.57 15.7256 1890.9 15.7256H1902.57H1904.79V39.4369H1872.77C1872.6 42.1376 1872.71 44.6945 1872.69 47.2437C1872.67 49.8938 1872.69 52.5439 1872.69 55.2038V86.6558C1871.26 86.683 1869.98 86.7179 1868.7 86.7296C1867.45 86.7432 1866.2 86.7296 1864.7 86.7296C1864.46 82.07 1864.62 77.5037 1864.59 72.945C1864.56 68.3573 1864.59 63.7676 1864.58 59.178C1864.57 54.5883 1864.58 50.0006 1864.58 45.4128V31.5021H1896.61C1896.96 28.8403 1896.63 26.3649 1896.66 23.7595Z" fill="white" fill-opacity="0.1"/>
<path d="M1881.03 49.5762L1918.43 86.311L1918.28 86.7226H1916.01C1913.51 86.7226 1911.01 86.6915 1908.51 86.7323C1907.51 86.7498 1906.75 86.5071 1906.04 85.8004C1897.9 77.7976 1889.77 69.8006 1881.62 61.8095C1881.16 61.3552 1880.75 60.6155 1880.74 59.9981C1880.65 56.7733 1880.69 53.5465 1880.71 50.3198C1880.7 50.1567 1880.83 49.9955 1881.03 49.5762Z" fill="white" fill-opacity="0.1"/>
<path d="M1880.71 71.5883L1896.17 86.5883C1895.77 86.6576 1895.38 86.703 1894.98 86.7242C1892.14 86.7242 1889.3 86.6717 1886.47 86.7416C1885.37 86.7688 1884.69 86.297 1883.86 85.6777C1881.29 83.7362 1880.19 81.3715 1880.61 78.1506C1880.89 75.9897 1880.69 73.7667 1880.71 71.5728C1880.73 71.5243 1880.8 71.4757 1880.71 71.5883Z" fill="white" fill-opacity="0.1"/>
</svg>
