<svg version="1.2" xmlns="http://www.w3.org/2000/svg" viewBox="0 0 249 35" width="249" height="35">
	<title>logo-svg</title>
	<style>
		.s0 { fill: #FCB30F } 
	</style>
	<g>
		<path fill-rule="evenodd" class="s0" d="m0 12.3c0-6.6 5.4-12 11.9-12h12.1v4.1h-12.1c-4.2 0-7.8 3.5-7.8 7.8v10.7c0 4.3 3.6 7.8 7.8 7.8h12.1v4.1h-12.1c-6.5-0.1-11.9-5.5-11.9-12zm8.8 0v0.9h15.2v4.1h-19.4v-5.1c0-4 3.4-7.3 7.3-7.3h12.1v4.1h-12.1c-1.7 0-3.1 1.4-3.1 3.3zm15.2 5.5v4.2h-15.2v0.9c0 1.7 1.4 3.1 3.1 3.1h12.1v4.1h-12.1c-3.9 0-7.3-3.3-7.3-7.3v-5.1zm19.3-13.5h-4.8c-4.3 0-7.9 3.5-7.9 7.9v22.5h-4.2v-22.5c0-6.7 5.5-12.1 12.1-12.1h4.8c6.6 0 12.2 5.4 12.2 12.1v22.5h-4.3v-22.5c0-4.4-3.5-7.9-7.9-7.9zm-12.2 17.5v-9.6c0-4.1 3.4-7.5 7.4-7.5h4.8c4.1 0 7.4 3.4 7.4 7.5v9.6zm4.3 4.9v8h-4.3v-12.3h19.6v12.3h-4.3v-8zm0-14.5v5.4h11.1v-5.4c0-1.8-1.4-3.2-3.2-3.2h-4.8c-1.7 0-3.1 1.4-3.1 3.2zm32.9-8.1c-8.8-0.1-8.7 13.7 0.5 13.7h4.3c4.5 0 6.8 3 6.8 6.1 0 3.7-2.2 6.6-6.1 6.6h-4.1c-3.4-0.1-6.8-1.8-7.3-5.3l4.1-0.8c0.4 1.1 1.4 1.9 2.5 2h4.8c2.7 0 2.6-4.5 0-4.5h-4.4c-15.8-0.1-15.4-21.8-1.2-21.8h4.6c5.3 0 10.5 3.6 11.4 8.9l-3.9 0.7c-0.5-3.8-4.2-5.6-7.9-5.6zm5.6 26.9c4.7 0 6.5-3.3 6.5-7.1 0-3.3-2.3-6.6-7.2-6.6h-4.4c-8.5-0.1-8.6-12.9-0.5-12.9h4.3c3.4 0 6.8 1.8 7.3 5.3l-4.1 0.8c-0.4-1.1-1.4-1.9-2.5-1.9h-4.8c-2.7 0-2.7 4.5 0 4.5h4.4c7.7 0 11.7 5.3 11.8 10.7 0 5.4-3.9 10.9-11.6 10.9h-3.4c-5.5 0.2-10.7-3.4-11.7-8.7l4-0.7c0.5 3.8 4.2 5.7 7.9 5.7zm14.6-17.7c-1.9-2-2.4-4.3-2.4-7v-6h4.1v6.1c0 1.9 0.6 3.4 1.8 4.7l8.1 8.7v14.8h-4v-13.2zm2.2-13h4.1v5.9c0 0.7 0.1 1.4 0.6 1.9l4.9 5.5 4.9-5.5c0.5-0.5 0.7-1.2 0.7-1.9v-5.9h4.1v6.1c0 1.8-0.5 3.1-1.7 4.4l-8 8.6-8-8.6c-1.2-1.3-1.7-2.6-1.7-4.4zm9.9 19.6l8.2-8.7c1.3-1.3 1.8-2.8 1.8-4.7v-6.2h4.1v6c0 2.7-0.6 5-2.4 7l-7.6 8.1v13.2h-4.1zm49.6-5.6v-2c0-4.4-3.6-7.9-7.9-7.9h-3.2c-4.3 0-7.9 3.5-7.9 7.8v22.5h-4.1v-22.6c0-6.5 5.5-11.9 12-11.9h3.1c6.6 0 12 5.4 12 12v2c0 6.6-5.4 12-12 12h-6.2v8.4h-4.2v-12.5h10.5c4.3 0 7.9-3.5 7.9-7.8zm-18.3-2.1c0-4 3.1-7.4 7.3-7.4h3.2c4 0 7.4 3.4 7.4 7.4v2c0 4-3.3 7.3-7.4 7.3h-10.5zm13.6 0c0-1.8-1.4-3.2-3.1-3.2h-3.2c-1.7 0-3.1 1.4-3.1 3.2v5.2h6.4c1.7 0 3.1-1.5 3.1-3.2zm27.5-7.9h-4.8c-4.3 0-7.9 3.5-7.9 7.9v22.5h-4.2v-22.5c0-6.7 5.5-12.1 12.1-12.1h4.8c6.6 0 12.2 5.4 12.2 12.1v22.5h-4.3v-22.5c0-4.4-3.5-7.9-7.9-7.9zm-12.2 17.5v-9.6c0-4.1 3.4-7.5 7.4-7.5h4.8c4.1 0 7.4 3.4 7.4 7.5v9.6zm4.3 4.9v8h-4.3v-12.3h19.6v12.3h-4.3v-8zm0-14.5v5.4h11.1v-5.4c0-1.8-1.4-3.2-3.2-3.2h-4.8c-1.7 0-3.1 1.4-3.1 3.2zm40 5.4v-4.3h17.1v4.7c0 10.1-6.9 17-17 17-9.6 0-17.4-7.9-17.4-17.5 0-9.7 7.8-17.5 17.5-17.5 3.5 0 6.6 1 9.4 2.7l-2.1 3.7c-2-1.3-4.6-2.1-7.3-2.1-7.4 0-13.2 6-13.2 13.3 0 7.3 5.8 13.2 13.1 13.2 7.2 0.1 13.3-5.9 13.4-13.2zm7.1-10.7l-2 3.7c-1.4-1-3.2-1.6-5-1.6-4.7 0-8.6 3.8-8.6 8.5 0 4.7 3.8 8.5 8.5 8.6 2.8 0 5.6-1.5 7.1-3.8h-7.2v-4.3h12.8c-0.3 6.8-6 12.2-12.8 12.2-7 0-12.7-5.7-12.7-12.8 0-7.1 5.7-12.7 12.8-12.7 2.7 0.1 5.1 0.9 7.1 2.2zm12 5.4c0-6.6 5.4-12 11.9-12h12.1v4.1h-12.1c-4.2 0-7.8 3.5-7.8 7.8v10.7c0 4.3 3.6 7.8 7.8 7.8h12.1v4.1h-12.1c-6.5 0-11.9-5.4-11.9-11.9zm8.7 0v0.9h15.3v4.1h-19.4v-5.1c0-4 3.4-7.3 7.3-7.3h12.1v4.1h-12.1c-1.7 0-3.2 1.4-3.2 3.3zm15.4 5.5v4.2h-15.3v0.9c0 1.7 1.4 3.1 3.1 3.1h12.1v4.1h-12.1c-3.9 0-7.3-3.3-7.3-7.3v-5.1z"/>
	</g>
</svg>